<?xml version="1.0" encoding="UTF-8"?>
<svg width="64px" height="64px" viewBox="0 0 64 64" version="1.1" xmlns="http://www.w3.org/2000/svg" xmlns:xlink="http://www.w3.org/1999/xlink">
    <title>Icon-2-No Partnerships</title>
    <g id="Icon-2-No-Partnerships" stroke="none" stroke-width="1" fill="none" fill-rule="evenodd">
        <g id="user-square" transform="translate(16.000000, 16.000000)">
            <path d="M19.9999797,30.1666667 L11.9999797,30.1666667 C10.373313,30.1666667 8.98664713,30.0066601 7.8133138,29.6599935 C8.10664713,26.193327 11.6666463,23.4599609 15.9999797,23.4599609 C20.333313,23.4599609 23.8933122,26.193327 24.1866455,29.6599935 C23.0133122,30.0066601 21.6266464,30.1666667 19.9999797,30.1666667 Z" id="Vector" stroke="#1758F5" stroke-width="1.5" stroke-linecap="round" stroke-linejoin="round" stroke-dasharray="0,0" fill-rule="nonzero"></path>
            <path d="M12,3.5 C5.33333333,3.5 2.66666667,6.16666667 2.66666667,12.8333333 L2.66666667,20.8333333 C2.66666667,25.8733333 4.18666744,28.6333268 7.81333415,29.6599935 C8.10666748,26.193327 11.6666667,23.4599609 16,23.4599609 C20.3333333,23.4599609 23.8933325,26.193327 24.1866659,29.6599935 C27.8133326,28.6333268 29.3333333,25.8733333 29.3333333,20.8333333 L29.3333333,12.8333333 C29.3333333,6.16666667 26.6666667,3.5 20,3.5 L12,3.5 Z M11.2266642,14.9400228 C11.2266642,12.3000228 13.36,10.1666667 16,10.1666667 C18.64,10.1666667 20.7733358,12.3000228 20.7733358,14.9400228 C20.7733358,17.5800228 18.64,19.7266439 16,19.7266439 C13.36,19.7266439 11.2266642,17.5800228 11.2266642,14.9400228 Z" id="Vector" stroke="#1758F5" stroke-width="1.5" stroke-linecap="round" stroke-linejoin="round" stroke-dasharray="0,0"></path>
            <path d="M16.000061,19.7266439 C13.360061,19.7266439 11.2267253,17.5800228 11.2267253,14.9400228 C11.2267253,12.3000228 13.360061,10.1666667 16.000061,10.1666667 C18.6400611,10.1666667 20.7733968,12.3000228 20.7733968,14.9400228 C20.7733968,17.5800228 18.6400611,19.7266439 16.000061,19.7266439 Z" id="Vector" stroke="#1758F5" stroke-width="1.5" stroke-linecap="round" stroke-linejoin="round" stroke-dasharray="0,0" fill-rule="nonzero"></path>
            <path d="M32,0.833333333 L32,32.8333333 L0,32.8333333 L0,0.833333333 L32,0.833333333 Z" id="Vector" opacity="0"></path>
            <path d="M31.9310345,0.91954023 L1.2183908,31.6321839" id="Vector" stroke="#1758F5" stroke-width="1.5" stroke-linecap="round" stroke-linejoin="round" stroke-dasharray="0,0"></path>
        </g>
    </g>
</svg>