<svg width="317" height="39" viewBox="0 0 317 39" fill="none" xmlns="http://www.w3.org/2000/svg">
<path d="M0.429688 19.7378V13.2388H4.35059V10.231C4.35059 6.79346 5.21891 4.24219 6.95557 2.57715C8.69222 0.894206 11.0286 0.0527344 13.9648 0.0527344C15.8984 0.0527344 17.6619 0.455566 19.2554 1.26123V8.35107C17.9126 7.54541 16.534 7.14258 15.1196 7.14258C13.1502 7.14258 12.1655 8.13623 12.1655 10.1235V13.2388H17.9395V19.7378H12.1655V37.9995H4.35059V19.7378H0.429688Z" fill="#1758F5"/>
<path d="M21.6584 28.7075V13.2388H29.4733V27.9824C29.4733 29.4505 29.7419 30.5158 30.279 31.1782C30.8161 31.8407 31.8724 32.1719 33.4479 32.1719C34.3252 32.1719 35.292 32.0645 36.3483 31.8496V13.2388H44.1633V37.1133C42.8205 37.543 41.1197 37.8831 39.0607 38.1338C37.0197 38.4023 35.1488 38.5366 33.4479 38.5366C31.5681 38.5366 29.9388 38.3844 28.5603 38.0801C27.1996 37.7757 25.9821 37.2655 24.9079 36.5493C23.8337 35.8153 23.0191 34.7948 22.4641 33.4878C21.927 32.1808 21.6584 30.5874 21.6584 28.7075Z" fill="#1758F5"/>
<path d="M51.454 37.9995V15.0112C53.2265 14.313 55.2406 13.758 57.4965 13.3462C59.7523 12.9165 61.8471 12.7017 63.7807 12.7017C67.2719 12.7017 69.9395 13.4715 71.7836 15.0112C73.6277 16.5509 74.5497 19.1738 74.5497 22.8799V37.9995H66.7348V23.2021C66.7348 20.8568 65.5621 19.6841 63.2167 19.6841C61.7486 19.6841 60.4327 19.89 59.2689 20.3018V37.9995H51.454Z" fill="#1758F5"/>
<path d="M79.6114 25.6729C79.6114 21.8057 80.7752 18.6815 83.1026 16.3003C85.4301 13.9012 88.5453 12.7017 92.4483 12.7017C94.2924 12.7017 95.7337 12.9165 96.7721 13.3462V0.589844H104.587V37.2744C101.472 38.1159 97.8821 38.5366 93.818 38.5366C89.4495 38.5366 85.9851 37.4176 83.4249 35.1797C80.8826 32.9417 79.6114 29.7728 79.6114 25.6729ZM87.5338 25.4043C87.5338 27.4811 88.1067 29.0835 89.2525 30.2114C90.3984 31.3394 92.0097 31.9033 94.0865 31.9033C94.9459 31.9033 95.8411 31.8228 96.7721 31.6616V20.2212C95.8232 19.7557 94.6147 19.5229 93.1466 19.5229C91.4099 19.5229 90.0403 20.0511 89.0377 21.1074C88.0351 22.1458 87.5338 23.5781 87.5338 25.4043Z" fill="#1758F5"/>
<path d="M110.374 27.0962V20.1675H126.138V27.0962H110.374Z" fill="#1758F5"/>
<path d="M133.876 34.938C131.387 32.521 130.143 29.4147 130.143 25.6191C130.143 21.8236 131.387 18.7262 133.876 16.3271C136.382 13.9102 139.506 12.7017 143.248 12.7017C145.701 12.7017 147.921 13.2388 149.908 14.313C151.914 15.3693 153.489 16.8911 154.635 18.8784C155.799 20.8478 156.381 23.0947 156.381 25.6191C156.381 28.1436 155.799 30.3994 154.635 32.3867C153.489 34.3561 151.914 35.8779 149.908 36.9521C147.921 38.0085 145.701 38.5366 143.248 38.5366C139.506 38.5366 136.382 37.3371 133.876 34.938ZM139.462 21.0806C138.495 22.1906 138.011 23.7035 138.011 25.6191C138.011 27.5348 138.495 29.0566 139.462 30.1846C140.446 31.2946 141.709 31.8496 143.248 31.8496C144.824 31.8496 146.095 31.2946 147.062 30.1846C148.029 29.0566 148.512 27.5348 148.512 25.6191C148.512 23.7035 148.029 22.1906 147.062 21.0806C146.095 19.9705 144.824 19.4155 143.248 19.4155C141.709 19.4155 140.446 19.9705 139.462 21.0806Z" fill="#E72625"/>
<path d="M160.368 27.0962V20.1675H176.132V27.0962H160.368Z" fill="#E72625"/>
<path d="M181.946 37.9995V14.9038C185.867 13.4357 189.716 12.7017 193.494 12.7017C196.466 12.7017 198.757 13.3641 200.369 14.689C201.604 14.0623 202.839 13.5789 204.075 13.2388C205.328 12.8807 206.805 12.7017 208.506 12.7017C210.046 12.7017 211.388 12.8628 212.534 13.1851C213.68 13.5073 214.692 14.0355 215.569 14.7695C216.446 15.5036 217.109 16.533 217.556 17.8579C218.022 19.1649 218.255 20.7493 218.255 22.6113V37.9995H210.44V22.9336C210.44 21.8415 210.216 21 209.768 20.4092C209.321 19.8184 208.497 19.5229 207.298 19.5229C205.955 19.5229 204.71 19.8005 203.565 20.3555C203.815 20.9463 203.941 21.6177 203.941 22.3696V37.9995H196.126V22.9336C196.126 21.8594 195.902 21.0269 195.454 20.436C195.007 19.8273 194.21 19.5229 193.064 19.5229C192.115 19.5229 191.014 19.6841 189.761 20.0063V37.9995H181.946Z" fill="#E72625"/>
<path d="M223.37 26.022C223.37 21.922 224.507 18.6815 226.781 16.3003C229.054 13.9012 231.991 12.7017 235.589 12.7017C237.559 12.7017 239.259 13.015 240.692 13.6416C242.142 14.2682 243.27 15.1545 244.076 16.3003C244.899 17.4282 245.49 18.6815 245.848 20.0601C246.224 21.4386 246.412 22.9784 246.412 24.6792V28.0361H230.916V28.1436C231.239 29.3789 232.035 30.3188 233.307 30.9634C234.578 31.59 236.001 31.9033 237.577 31.9033C240.495 31.9033 243.225 31.2409 245.767 29.916V36.3613C243.583 37.8115 240.557 38.5366 236.69 38.5366C232.555 38.5366 229.296 37.4087 226.915 35.1528C224.552 32.897 223.37 29.8534 223.37 26.022ZM230.97 23.6318H239.268C239.268 22.307 238.955 21.2148 238.328 20.3555C237.72 19.4961 236.753 19.0664 235.428 19.0664C234.211 19.0664 233.217 19.4782 232.447 20.3018C231.677 21.1253 231.185 22.2354 230.97 23.6318Z" fill="#E72625"/>
<path d="M248.976 19.7378V13.2388H252.655V7.14258H260.417V13.2388H267.506V19.7378H260.417V27.875C260.417 29.1641 260.694 30.0682 261.249 30.5874C261.822 31.0887 262.628 31.3394 263.666 31.3394C265.313 31.3394 266.817 30.8828 268.178 29.9697V37.1133C266.387 38.0622 264.149 38.5366 261.464 38.5366C260.282 38.5366 259.181 38.3844 258.161 38.0801C257.158 37.7936 256.227 37.3371 255.368 36.7104C254.526 36.0659 253.864 35.1886 253.38 34.0786C252.897 32.9507 252.655 31.6348 252.655 30.1309V19.7378H248.976Z" fill="#E72625"/>
<path d="M271.628 26.022C271.628 21.922 272.765 18.6815 275.039 16.3003C277.313 13.9012 280.249 12.7017 283.847 12.7017C285.817 12.7017 287.518 13.015 288.95 13.6416C290.4 14.2682 291.528 15.1545 292.334 16.3003C293.157 17.4282 293.748 18.6815 294.106 20.0601C294.482 21.4386 294.67 22.9784 294.67 24.6792V28.0361H279.175V28.1436C279.497 29.3789 280.294 30.3188 281.565 30.9634C282.836 31.59 284.259 31.9033 285.835 31.9033C288.753 31.9033 291.483 31.2409 294.026 29.916V36.3613C291.841 37.8115 288.816 38.5366 284.948 38.5366C280.813 38.5366 277.554 37.4087 275.173 35.1528C272.81 32.897 271.628 29.8534 271.628 26.022ZM279.228 23.6318H287.527C287.527 22.307 287.213 21.2148 286.587 20.3555C285.978 19.4961 285.011 19.0664 283.686 19.0664C282.469 19.0664 281.475 19.4782 280.705 20.3018C279.935 21.1253 279.443 22.2354 279.228 23.6318Z" fill="#E72625"/>
<path d="M300.591 37.9995V15.0649C303.42 13.5968 306.795 12.8628 310.716 12.8628C312.596 12.8628 314.431 13.1045 316.221 13.5879V21.1074C314.807 20.4808 313.079 20.1675 311.038 20.1675C310.304 20.1675 309.427 20.2839 308.406 20.5166V37.9995H300.591Z" fill="#E72625"/>
</svg>
