<svg width="24" height="24" viewBox="0 0 24 24" fill="none" xmlns="http://www.w3.org/2000/svg">
<path d="M10.8656 2.06523C9.40498 2.38678 8.28176 3.51 7.94455 4.98628C7.84921 5.39896 7.84921 6.17292 7.94455 6.60567C8.3215 8.33606 9.54006 9.76096 10.9609 10.1261C12.0524 10.4039 13.1875 10.0111 14.1122 9.03857C14.9536 8.14959 15.4498 6.93505 15.4418 5.76025C15.4418 5.14906 15.3424 4.7125 15.0925 4.1806C14.8663 3.70429 14.6401 3.38676 14.275 3.04152C13.7828 2.57706 13.2391 2.26755 12.6199 2.10096C12.1715 1.98173 11.318 1.96588 10.8656 2.06523ZM12.2309 3.41847C12.8461 3.57323 13.3342 3.91465 13.6755 4.43049C13.989 4.89495 14.0604 5.15689 14.0604 5.81966C14.0564 6.35538 14.0524 6.3911 13.9135 6.78411C13.592 7.70882 12.9609 8.44706 12.2465 8.74472C11.9489 8.86776 11.3694 8.86776 11.0717 8.74472C10.3574 8.44706 9.73034 7.70882 9.40076 6.78411C9.26186 6.3911 9.25785 6.35558 9.25785 5.81966C9.25785 5.15689 9.32931 4.89495 9.64283 4.43049C9.88891 4.05736 10.1667 3.81128 10.5675 3.61297C11.1197 3.33919 11.6713 3.27576 12.2309 3.41847Z" fill="#1758F5"/>
<path d="M7.6631 8.61382C6.92085 9.10999 6.26209 9.98713 5.98831 10.8404C5.79382 11.4437 5.78197 11.5826 5.75809 13.1701L5.73822 14.6823L5.52786 14.71C5.03972 14.7696 4.4484 15.1903 4.22219 15.6347C4.00783 16.0594 4 16.1387 4 18.1828C4 20.2388 4.00803 20.3261 4.23022 20.7388C4.39702 21.0483 4.71837 21.346 5.06762 21.5128L5.3693 21.6557L11.5211 21.6675C16.0854 21.6755 17.7285 21.6675 17.8911 21.6358C18.3634 21.5326 18.8636 21.1595 19.0898 20.7388C19.312 20.3259 19.32 20.2386 19.32 18.1828C19.32 16.1271 19.312 16.0358 19.0898 15.6269C18.8397 15.1665 18.2642 14.7616 17.7801 14.7022L17.5738 14.6783V13.4836C17.5738 12.1541 17.534 11.5628 17.415 11.1142C17.2205 10.3681 16.8197 9.67742 16.2679 9.13368C15.9742 8.84404 15.4781 8.45886 15.3948 8.45886C15.3829 8.45886 15.3671 8.55802 15.363 8.67724C15.355 8.95905 15.2599 9.29244 15.0455 9.80829C14.6844 10.6774 14.073 11.7213 12.9301 13.42L12.5967 13.9162L12.3705 12.8048L12.1443 11.6936L12.398 11.4357C12.5409 11.2888 12.6521 11.1421 12.6521 11.0943C12.6521 11.003 12.5052 10.8522 12.2949 10.7252C12.1758 10.6537 12.0925 10.6419 11.6678 10.6419C11.2987 10.6419 11.148 10.6577 11.0526 10.7053C10.87 10.7966 10.6676 11.003 10.6676 11.0943C10.6676 11.1419 10.7788 11.2888 10.9218 11.4357L11.1757 11.6936L10.9533 12.7731C10.8342 13.3684 10.719 13.8566 10.7032 13.8566C10.6594 13.8566 9.65141 12.3247 9.20301 11.5744C8.73072 10.7924 8.25843 9.84402 8.11151 9.3916C8.00031 9.06222 7.913 8.55822 7.95274 8.49459C7.9965 8.41932 7.88931 8.46308 7.6631 8.61382ZM17.7678 16.1427C17.8353 16.1983 17.9067 16.3093 17.9306 16.3888C17.9623 16.488 17.9704 17.1152 17.9623 18.2702C17.9505 19.957 17.9465 20.0046 17.8672 20.1158C17.8234 20.1754 17.7401 20.2506 17.6886 20.2745C17.5497 20.346 5.76993 20.346 5.63103 20.2745C5.57945 20.2506 5.49615 20.1754 5.45239 20.1158C5.3691 20.0046 5.3691 19.9688 5.3691 18.1551V16.3095L5.51602 16.1747L5.66676 16.0398H11.6558H17.6448L17.7678 16.1427Z" fill="#1758F5"/>
<path d="M9.04238 16.639C8.31619 16.7421 7.82002 17.2104 7.69297 17.9051C7.5621 18.6353 7.88345 19.3179 8.49864 19.5957C8.70899 19.6911 8.80815 19.7069 9.18128 19.7188C9.47894 19.7306 9.67343 19.7188 9.79647 19.683L9.97511 19.6274L9.9711 19.4171C9.96327 19.1353 9.90767 19.0877 9.67745 19.1393C9.23286 19.2425 8.74873 19.0917 8.54641 18.786C8.41153 18.5797 8.35192 18.2423 8.4035 17.9605C8.47496 17.5833 8.68129 17.3375 9.0187 17.2303C9.17345 17.1827 9.66962 17.1905 9.8045 17.2501C9.89583 17.2859 9.999 17.1191 10.0068 16.9089C10.0149 16.7461 10.0068 16.7343 9.87596 16.6905C9.67343 16.6269 9.29649 16.6032 9.04238 16.639Z" fill="#1758F5"/>
<path d="M13.9706 16.635C12.9585 16.7819 12.4266 18.0279 12.9465 19.0281C13.2004 19.5243 13.645 19.7543 14.276 19.7226C14.6927 19.7027 14.9111 19.6114 15.1929 19.3495C15.6851 18.889 15.8041 18.0398 15.4707 17.361C15.205 16.8214 14.6255 16.5396 13.9706 16.635ZM14.4786 17.2381C14.7843 17.3929 14.9232 17.6905 14.9191 18.1867C14.9191 18.8218 14.6532 19.1909 14.2008 19.1909C13.9547 19.1909 13.7761 19.0797 13.6291 18.8416C13.526 18.675 13.5061 18.6074 13.4943 18.2861C13.4744 17.8892 13.5181 17.6709 13.657 17.4645C13.7524 17.3176 14.042 17.151 14.2008 17.151C14.2564 17.1508 14.3832 17.1905 14.4786 17.2381Z" fill="#1758F5"/>
<path d="M10.4972 16.6984C10.4574 16.7381 10.4655 19.5797 10.5012 19.6434C10.5289 19.6791 10.7473 19.6909 11.4656 19.6831L12.3943 19.6713V19.4134V19.1554L11.791 19.1436L11.1838 19.1317V18.7785V18.4212H11.6918C12.0333 18.4212 12.2157 18.4053 12.2474 18.3736C12.299 18.322 12.3111 18.0362 12.2713 17.929C12.2514 17.8734 12.1641 17.8656 11.7157 17.8656H11.1838V17.5481V17.2345L11.7515 17.2227L12.3151 17.2108V16.9529V16.695L11.4181 16.6832C10.9259 16.6787 10.513 16.6866 10.4972 16.6984Z" fill="#1758F5"/>
</svg>
