<svg width="402" height="48" viewBox="0 0 402 48" fill="none" xmlns="http://www.w3.org/2000/svg">
<path d="M200.601 30.8022C200.601 28.242 201.532 26.3353 203.394 25.082C205.274 23.8288 207.951 23.2021 211.424 23.2021H214.056V22.2085C214.056 21.2059 213.671 20.4718 212.901 20.0063C212.131 19.5409 211.128 19.3081 209.893 19.3081C207.351 19.3081 204.987 19.9795 202.803 21.3223V14.7427C205.131 13.382 207.968 12.7017 211.316 12.7017C218.281 12.7017 221.763 15.7632 221.763 21.8862V37.4624C218.541 38.1785 215.166 38.5366 211.639 38.5366C204.28 38.5366 200.601 35.9585 200.601 30.8022ZM208.335 30.3994C208.335 31.2409 208.613 31.8765 209.168 32.3062C209.741 32.7358 210.529 32.9507 211.531 32.9507C212.444 32.9507 213.286 32.8701 214.056 32.709V27.9287H211.988C209.553 27.9287 208.335 28.7523 208.335 30.3994Z" fill="#E72625"/>
<path d="M226.691 25.6729C226.691 21.8057 227.854 18.6815 230.182 16.3003C232.509 13.9012 235.625 12.7017 239.528 12.7017C241.372 12.7017 242.813 12.9165 243.851 13.3462V0.589844H251.666V37.2744C248.551 38.1159 244.961 38.5366 240.897 38.5366C236.529 38.5366 233.064 37.4176 230.504 35.1797C227.962 32.9417 226.691 29.7728 226.691 25.6729ZM234.613 25.4043C234.613 27.4811 235.186 29.0835 236.332 30.2114C237.478 31.3394 239.089 31.9033 241.166 31.9033C242.025 31.9033 242.92 31.8228 243.851 31.6616V20.2212C242.902 19.7557 241.694 19.5229 240.226 19.5229C238.489 19.5229 237.119 20.0511 236.117 21.1074C235.114 22.1458 234.613 23.5781 234.613 25.4043Z" fill="#E72625"/>
<path d="M255.842 13.2388H264.328L270.048 30.2383L275.768 13.2388H283.959L274.506 37.9995H265.295L255.842 13.2388Z" fill="#E72625"/>
<path d="M287.544 5.82666C287.544 4.5734 287.983 3.50814 288.86 2.63086C289.755 1.75358 290.82 1.31494 292.056 1.31494C293.255 1.31494 294.294 1.75358 295.171 2.63086C296.066 3.50814 296.514 4.5734 296.514 5.82666C296.514 7.04411 296.066 8.09147 295.171 8.96875C294.294 9.84603 293.255 10.2847 292.056 10.2847C290.82 10.2847 289.755 9.85498 288.86 8.99561C287.983 8.11833 287.544 7.06201 287.544 5.82666ZM288.162 37.9995V13.2388H295.977V37.9995H288.162Z" fill="#E72625"/>
<path d="M302.005 21.0537C302.005 18.2965 302.927 16.2197 304.771 14.8232C306.633 13.4089 309.05 12.7017 312.022 12.7017C313.526 12.7017 314.842 12.8538 315.97 13.1582C317.116 13.4626 318.271 13.937 319.434 14.5815V21.2148C316.999 19.6751 314.636 18.9053 312.345 18.9053C310.5 18.9053 309.578 19.4424 309.578 20.5166C309.578 20.9821 309.775 21.3491 310.169 21.6177C310.563 21.8862 311.217 22.0832 312.13 22.2085C313.884 22.495 315.352 22.8799 316.534 23.3633C317.716 23.8288 318.638 24.4196 319.3 25.1357C319.98 25.8519 320.455 26.6396 320.723 27.499C321.01 28.3405 321.153 29.3431 321.153 30.5068C321.153 33.1745 320.231 35.1797 318.387 36.5225C316.561 37.8652 314.054 38.5366 310.867 38.5366C307.502 38.5366 304.691 37.8652 302.435 36.5225V29.6475C303.652 30.4531 305.022 31.1066 306.544 31.6079C308.083 32.0913 309.444 32.333 310.626 32.333C312.577 32.333 313.553 31.8228 313.553 30.8022C313.553 30.283 313.329 29.8802 312.882 29.5938C312.434 29.3073 311.646 29.0835 310.518 28.9224C307.528 28.5106 305.362 27.687 304.019 26.4517C302.677 25.1984 302.005 23.3991 302.005 21.0537Z" fill="#E72625"/>
<path d="M328.766 34.938C326.278 32.521 325.033 29.4147 325.033 25.6191C325.033 21.8236 326.278 18.7262 328.766 16.3271C331.273 13.9102 334.397 12.7017 338.139 12.7017C340.591 12.7017 342.812 13.2388 344.799 14.313C346.804 15.3693 348.38 16.8911 349.525 18.8784C350.689 20.8478 351.271 23.0947 351.271 25.6191C351.271 28.1436 350.689 30.3994 349.525 32.3867C348.38 34.3561 346.804 35.8779 344.799 36.9521C342.812 38.0085 340.591 38.5366 338.139 38.5366C334.397 38.5366 331.273 37.3371 328.766 34.938ZM334.352 21.0806C333.385 22.1906 332.902 23.7035 332.902 25.6191C332.902 27.5348 333.385 29.0566 334.352 30.1846C335.337 31.2946 336.599 31.8496 338.139 31.8496C339.714 31.8496 340.985 31.2946 341.952 30.1846C342.919 29.0566 343.402 27.5348 343.402 25.6191C343.402 23.7035 342.919 22.1906 341.952 21.0806C340.985 19.9705 339.714 19.4155 338.139 19.4155C336.599 19.4155 335.337 19.9705 334.352 21.0806Z" fill="#E72625"/>
<path d="M356.736 37.9995V15.0649C359.564 13.5968 362.939 12.8628 366.86 12.8628C368.74 12.8628 370.575 13.1045 372.365 13.5879V21.1074C370.951 20.4808 369.223 20.1675 367.182 20.1675C366.448 20.1675 365.571 20.2839 364.551 20.5166V37.9995H356.736Z" fill="#E72625"/>
<path d="M373.963 13.2388H382.395L388.062 29.3521L393.594 13.2388H401.731L388.223 47.9092H380.516L384.087 38.4829L373.963 13.2388Z" fill="#E72625"/>
<path d="M0.429688 19.7378V13.2388H4.35059V11.2783C4.35059 9.41634 4.65495 7.7513 5.26367 6.2832C5.8903 4.8151 6.73177 3.64242 7.78809 2.76514C8.8444 1.86995 10.035 1.19857 11.3599 0.750977C12.6847 0.285482 14.0902 0.0527344 15.5762 0.0527344C18.4766 0.0527344 20.7503 0.598796 22.3975 1.69092V8.96875C20.7145 7.82292 18.8436 7.25 16.7847 7.25C15.4419 7.25 14.3319 7.59017 13.4546 8.27051C12.5952 8.93294 12.1655 9.97135 12.1655 11.3857V13.2388H27.7686V37.9995H19.9536V19.7378H12.1655V37.9995H4.35059V19.7378H0.429688Z" fill="#1758F5"/>
<path d="M35.0056 37.9995V15.0112C36.778 14.313 38.7922 13.758 41.048 13.3462C43.3039 12.9165 45.3986 12.7017 47.3322 12.7017C50.8234 12.7017 53.4911 13.4715 55.3352 15.0112C57.1792 16.5509 58.1013 19.1738 58.1013 22.8799V37.9995H50.2863V23.2021C50.2863 20.8568 49.1136 19.6841 46.7683 19.6841C45.3002 19.6841 43.9842 19.89 42.8205 20.3018V37.9995H35.0056Z" fill="#1758F5"/>
<path d="M63.5121 30.8022C63.5121 28.242 64.4431 26.3353 66.3051 25.082C68.185 23.8288 70.8616 23.2021 74.3349 23.2021H76.9667V22.2085C76.9667 21.2059 76.5818 20.4718 75.8119 20.0063C75.0421 19.5409 74.0395 19.3081 72.8041 19.3081C70.2618 19.3081 67.8985 19.9795 65.7143 21.3223V14.7427C68.0417 13.382 70.8795 12.7017 74.2274 12.7017C81.192 12.7017 84.6742 15.7632 84.6742 21.8862V37.4624C81.4516 38.1785 78.0767 38.5366 74.5497 38.5366C67.1913 38.5366 63.5121 35.9585 63.5121 30.8022ZM71.2465 30.3994C71.2465 31.2409 71.524 31.8765 72.079 32.3062C72.6519 32.7358 73.4397 32.9507 74.4423 32.9507C75.3554 32.9507 76.1968 32.8701 76.9667 32.709V27.9287H74.8988C72.4639 27.9287 71.2465 28.7523 71.2465 30.3994Z" fill="#1758F5"/>
<path d="M91.4278 37.9995V15.0112C93.2003 14.313 95.2145 13.758 97.4703 13.3462C99.7262 12.9165 101.821 12.7017 103.754 12.7017C107.246 12.7017 109.913 13.4715 111.757 15.0112C113.601 16.5509 114.524 19.1738 114.524 22.8799V37.9995H106.709V23.2021C106.709 20.8568 105.536 19.6841 103.191 19.6841C101.722 19.6841 100.407 19.89 99.2428 20.3018V37.9995H91.4278Z" fill="#1758F5"/>
<path d="M119.585 25.6729C119.585 21.8415 120.803 18.7262 123.238 16.3271C125.672 13.9102 128.841 12.7017 132.744 12.7017C135.412 12.7017 137.757 13.3104 139.781 14.5278V21.7788C137.972 20.2749 135.922 19.5229 133.631 19.5229C131.751 19.5229 130.247 20.0601 129.119 21.1343C128.009 22.2085 127.454 23.6855 127.454 25.5654C127.454 27.3737 128.027 28.8597 129.173 30.0234C130.318 31.1693 131.894 31.7422 133.899 31.7422C136.191 31.7422 138.187 31.026 139.888 29.5938V36.7373C138.062 37.9368 135.681 38.5366 132.744 38.5366C128.644 38.5366 125.422 37.3729 123.076 35.0454C120.749 32.7 119.585 29.5758 119.585 25.6729Z" fill="#1758F5"/>
<path d="M145.084 5.82666C145.084 4.5734 145.523 3.50814 146.4 2.63086C147.295 1.75358 148.36 1.31494 149.596 1.31494C150.795 1.31494 151.834 1.75358 152.711 2.63086C153.606 3.50814 154.054 4.5734 154.054 5.82666C154.054 7.04411 153.606 8.09147 152.711 8.96875C151.834 9.84603 150.795 10.2847 149.596 10.2847C148.36 10.2847 147.295 9.85498 146.4 8.99561C145.523 8.11833 145.084 7.06201 145.084 5.82666ZM145.702 37.9995V13.2388H153.517V37.9995H145.702Z" fill="#1758F5"/>
<path d="M159.277 30.8022C159.277 28.242 160.208 26.3353 162.07 25.082C163.949 23.8288 166.626 23.2021 170.099 23.2021H172.731V22.2085C172.731 21.2059 172.346 20.4718 171.576 20.0063C170.807 19.5409 169.804 19.3081 168.569 19.3081C166.026 19.3081 163.663 19.9795 161.479 21.3223V14.7427C163.806 13.382 166.644 12.7017 169.992 12.7017C176.956 12.7017 180.439 15.7632 180.439 21.8862V37.4624C177.216 38.1785 173.841 38.5366 170.314 38.5366C162.956 38.5366 159.277 35.9585 159.277 30.8022ZM167.011 30.3994C167.011 31.2409 167.288 31.8765 167.843 32.3062C168.416 32.7358 169.204 32.9507 170.207 32.9507C171.12 32.9507 171.961 32.8701 172.731 32.709V27.9287H170.663C168.228 27.9287 167.011 28.7523 167.011 30.3994Z" fill="#1758F5"/>
<path d="M187.192 37.9995V0.589844H195.007V37.9995H187.192Z" fill="#1758F5"/>
</svg>
