<svg xmlns="http://www.w3.org/2000/svg" viewBox="0 0 500 372.61"><defs><style>.cls-1,.cls-20,.cls-21,.cls-22,.cls-24,.cls-25{isolation:isolate;}.cls-2{fill:#ebebeb;}.cls-3{fill:#f0f0f0;}.cls-4{fill:#f5f5f5;}.cls-5{fill:#fafafa;}.cls-6{fill:#407bff;}.cls-7{opacity:0.7;}.cls-14,.cls-23,.cls-24,.cls-25,.cls-29,.cls-8{fill:#fff;}.cls-9{opacity:0.25;}.cls-10,.cls-13,.cls-16,.cls-23,.cls-25{opacity:0.1;}.cls-11,.cls-14,.cls-15,.cls-20{opacity:0.2;}.cls-12,.cls-21{opacity:0.3;}.cls-13{mix-blend-mode:screen;}.cls-17{fill:#263238;}.cls-18{fill:#e2877b;}.cls-19{fill:#2e353a;}.cls-22{opacity:0.4;}.cls-24,.cls-28,.cls-29{opacity:0.8;}.cls-26{fill:#dc5753;}.cls-27{fill:#e4897b;}</style></defs><g class="cls-1"><g id="Layer_2" data-name="Layer 2"><g id="Character"><rect class="cls-2" y="327.45" width="500" height="0.25"/><rect class="cls-2" x="416.78" y="343.54" width="33.12" height="0.25"/><rect class="cls-2" x="322.53" y="346.26" width="8.69" height="0.25"/><rect class="cls-2" x="396.59" y="334.26" width="19.19" height="0.25"/><rect class="cls-2" x="52.46" y="335.94" width="43.19" height="0.25"/><rect class="cls-2" x="104.56" y="335.94" width="6.33" height="0.25"/><rect class="cls-2" x="131.47" y="340.16" width="93.68" height="0.25"/><path class="cls-2" d="M237,282.85H43.91a5.71,5.71,0,0,1-5.7-5.71V5.71A5.71,5.71,0,0,1,43.91,0H237a5.71,5.71,0,0,1,5.71,5.71V277.14A5.71,5.71,0,0,1,237,282.85ZM43.91.25a5.46,5.46,0,0,0-5.45,5.46V277.14a5.46,5.46,0,0,0,5.45,5.46H237a5.47,5.47,0,0,0,5.46-5.46V5.71A5.47,5.47,0,0,0,237,.25Z"/><path class="cls-2" d="M453.31,282.85H260.21a5.72,5.72,0,0,1-5.71-5.71V5.71A5.72,5.72,0,0,1,260.21,0h193.1A5.71,5.71,0,0,1,459,5.71V277.14A5.71,5.71,0,0,1,453.31,282.85ZM260.21.25a5.47,5.47,0,0,0-5.46,5.46V277.14a5.47,5.47,0,0,0,5.46,5.46h193.1a5.47,5.47,0,0,0,5.46-5.46V5.71A5.47,5.47,0,0,0,453.31.25Z"/><path class="cls-3" d="M98.3,142.82a8.94,8.94,0,0,0,.11-1.27,8,8,0,0,0-9.42-8,9.25,9.25,0,0,0-16.84,2.25,6.13,6.13,0,0,0-1.78-.27,6,6,0,0,0-6,6,5.88,5.88,0,0,0,.14,1.27Z"/><rect class="cls-4" x="113.86" y="168.61" width="25.72" height="143.03"/><rect class="cls-5" x="154.95" y="124.43" width="25.72" height="187.21"/><rect class="cls-3" x="360.42" y="144.76" width="25.72" height="166.88"/><rect class="cls-3" x="196.04" y="172.01" width="25.72" height="139.63"/><rect class="cls-5" x="319.32" y="147.27" width="25.72" height="164.37"/><rect class="cls-4" x="278.23" y="93.65" width="25.72" height="217.99"/><rect class="cls-5" x="72.77" y="201.61" width="25.72" height="108.97"/><rect class="cls-4" x="401.51" y="70.88" width="25.72" height="239.7"/><rect class="cls-5" x="237.14" y="133.18" width="25.72" height="178.46"/><path class="cls-4" d="M435,51.61a10.29,10.29,0,0,0,.16-1.76,11.28,11.28,0,0,0-11.28-11.28,11,11,0,0,0-1.83.16,12.86,12.86,0,0,0-23.42,3.13,8.52,8.52,0,0,0-2.49-.37,8.36,8.36,0,0,0-8.36,8.36,8.55,8.55,0,0,0,.19,1.76Z"/><path class="cls-4" d="M261.11,47.26A14.91,14.91,0,0,0,261.3,45,14.28,14.28,0,0,0,247,30.75a14.82,14.82,0,0,0-2.32.2,16.28,16.28,0,0,0-29.65,4A10.59,10.59,0,0,0,201.31,45a10.23,10.23,0,0,0,.25,2.23Z"/><path class="cls-4" d="M185.34,73.47a8.94,8.94,0,0,0,.11-1.27,8,8,0,0,0-9.42-8,9.25,9.25,0,0,0-16.84,2.25,6.13,6.13,0,0,0-1.78-.27,6,6,0,0,0-5.87,7.28Z"/><ellipse id="_Path_" data-name="&lt;Path&gt;" class="cls-4" cx="248.06" cy="361.29" rx="193.89" ry="11.32"/><polygon class="cls-6" points="105.85 189.09 104.58 187.34 196.11 120.85 257.42 166.49 306.75 131.46 359.3 164.04 427.8 77.96 429.43 79.37 359.74 166.84 306.84 134.04 257.39 169.16 256.76 168.69 196.1 123.53 105.85 189.09"/><g class="cls-7"><polygon class="cls-8" points="105.85 189.09 104.58 187.34 196.11 120.85 257.42 166.49 306.75 131.46 359.3 164.04 427.8 77.96 429.43 79.37 359.74 166.84 306.84 134.04 257.39 169.16 256.76 168.69 196.1 123.53 105.85 189.09"/></g><path class="cls-6" d="M110.54,189a5.39,5.39,0,1,1-4.52-6.14A5.38,5.38,0,0,1,110.54,189Z"/><path class="cls-6" d="M198.65,123.05a3.92,3.92,0,1,1-3.29-4.47A3.91,3.91,0,0,1,198.65,123.05Z"/><path class="cls-6" d="M310,134.06a3.27,3.27,0,1,1-2.73-3.73A3.27,3.27,0,0,1,310,134.06Z"/><path class="cls-6" d="M262.45,168.6a5.1,5.1,0,1,1-4.28-5.81A5.1,5.1,0,0,1,262.45,168.6Z"/><path class="cls-6" d="M363.32,166a3.84,3.84,0,1,1-3.22-4.38A3.84,3.84,0,0,1,363.32,166Z"/><polygon class="cls-6" points="433.39 71.37 413.43 84.47 425 93.73 433.39 71.37"/><path class="cls-6" d="M374.2,361.53h0V350.43h0l-1-1c-.32-.32-.65-.64-1.06-1.06H299.51l-.95.95-1.17,1.15h0v11.09h0l1.17,1.15.95.95H372.1l1-1,1.1-1.09Z"/><path class="cls-6" d="M380.6,346.27h0V335.17h0l-1.05-1-1.07-1.06H305.91l-1,.95-1.16,1.15h0v11.09h0l1.16,1.15,1,.95H378.5l1-1c.33-.34.67-.66,1.1-1.09Z"/><path class="cls-6" d="M374.2,331h0V319.89h0l-1-1-1.06-1.06H299.51l-.95.94-1.17,1.15h0V331h0l1.17,1.14.95,1H372.1l1-1,1.1-1.08Z"/><path class="cls-6" d="M368.22,315.74h0V304.64h0l-1.06-1-1.06-1.06H293.53l-.95,1-1.16,1.15h0v11.09h0c.45.46.8.8,1.16,1.15l.95,1h72.59l1-1,1.1-1.09Z"/><path class="cls-6" d="M383.17,300.48h0V289.38h0l-1.05-1-1.07-1.06H308.48l-1,1-1.16,1.15h0v11.09h0l1.16,1.15,1,.95h72.58l1-1,1.1-1.09Z"/><path class="cls-6" d="M371.21,285.22h0V274.1h0l-1-1L369.11,272H296.52l-.95.95-1.16,1.14h0v11.11h0l1.16,1.15.95.95h72.59l1-1,1.09-1.08Z"/><path class="cls-6" d="M378,270h0v-11.1h0l-1.06-1-1.06-1.06H303.35l-1,.95-1.16,1.15h0V270h0c.45.46.8.8,1.16,1.15l1,1h72.59l1-1,1.1-1.09Z"/><path class="cls-6" d="M272.54,361.53h0V350.43h0l-1.05-1-1.06-1.06H197.85l-.95.95-1.16,1.15h0v11.09h0l1.16,1.15.95.95h72.59l1-1,1.1-1.09Z"/><path class="cls-6" d="M278.94,346.27h0V335.17h0l-1-1-1.07-1.06H204.26l-1,.95-1.16,1.15h0v11.09h0l1.16,1.15,1,.95h72.58l1-1c.33-.34.67-.66,1.1-1.09Z"/><path class="cls-6" d="M272.54,331h0V319.89h0l-1.05-1c-.32-.33-.64-.65-1.06-1.06H197.85l-.95.94-1.16,1.15h0V331h0l1.16,1.14.95,1h72.59l1-1,1.1-1.08Z"/><path class="cls-6" d="M266.56,315.74h0V304.64h0l-1.06-1-1.06-1.06H191.87l-1,1-1.16,1.15h0v11.09h0c.45.46.8.8,1.16,1.15l1,1h72.59l1-1,1.1-1.09Z"/><path class="cls-6" d="M281.51,300.48h0V289.38h0l-1-1-1.07-1.06H206.82l-1,1-1.16,1.15h0v11.09h0l1.16,1.15,1,.95H279.4l1-1,1.1-1.09Z"/><path class="cls-6" d="M300,285.22h0V274.12l0,0h0l-1.05-1L297.86,272H225.27l-1,.95-1.16,1.14h0v11.11h0c.46.45.81.79,1.16,1.15l1,.95h72.59l1-1,1.1-1.08Z"/><path class="cls-6" d="M306.79,270h0v-11.1h0l-1.05-1-1.06-1.06H232.1l-.95.95L230,258.84h0V270h0l1.16,1.15,1,1h72.59l1-1,1.1-1.09Z"/><g class="cls-9"><path d="M272.54,361.53h0V350.43h0l-1.05-1-1.06-1.06H197.85l-.95.95-1.16,1.15h0v11.09h0l1.16,1.15.95.95h72.59l1-1,1.1-1.09Z"/></g><g class="cls-9"><path d="M278.94,346.27h0V335.17h0l-1-1-1.07-1.06H204.26l-1,.95-1.16,1.15h0v11.09h0l1.16,1.15,1,.95h72.58l1-1c.33-.34.67-.66,1.1-1.09Z"/></g><g class="cls-10"><path d="M272.54,331h0V319.89h0l-1.05-1c-.32-.33-.64-.65-1.06-1.06H197.85l-.95.94-1.16,1.15h0V331h0l1.16,1.14.95,1h72.59l1-1,1.1-1.08Z"/></g><g class="cls-9"><path d="M266.56,315.74h0V304.64h0l-1.06-1-1.06-1.06H191.87l-1,1-1.16,1.15h0v11.09h0c.45.46.8.8,1.16,1.15l1,1h72.59l1-1,1.1-1.09Z"/></g><g class="cls-10"><path d="M281.51,300.48h0V289.38h0l-1-1-1.07-1.06H206.82l-1,1-1.16,1.15h0v11.09h0l1.16,1.15,1,.95H279.4l1-1,1.1-1.09Z"/></g><g class="cls-9"><path d="M300,285.22h0V274.12l0,0h0l-1.05-1L297.86,272H225.27l-1,.95-1.16,1.14h0v11.11h0c.46.45.81.79,1.16,1.15l1,.95h72.59l1-1,1.1-1.08Z"/></g><g class="cls-10"><path d="M306.79,270h0v-11.1h0l-1.05-1-1.06-1.06H232.1l-.95.95L230,258.84h0V270h0l1.16,1.15,1,1h72.59l1-1,1.1-1.09Z"/></g><g class="cls-11"><path d="M374.2,361.53h0V350.43h0l-1-1c-.32-.32-.65-.64-1.06-1.06H299.51l-.95.95-1.17,1.15h0v11.09h0l1.17,1.15.95.95H372.1l1-1,1.1-1.09Z"/></g><g class="cls-11"><path d="M380.6,346.27h0V335.17h0l-1.05-1-1.07-1.06H305.91l-1,.95-1.16,1.15h0v11.09h0l1.16,1.15,1,.95H378.5l1-1c.33-.34.67-.66,1.1-1.09Z"/></g><g class="cls-12"><path d="M374.2,331h0V319.89h0l-1-1-1.06-1.06H299.51l-.95.94-1.17,1.15h0V331h0l1.17,1.14.95,1H372.1l1-1,1.1-1.08Z"/></g><g class="cls-11"><path d="M368.22,315.74h0V304.64h0l-1.06-1-1.06-1.06H293.53l-.95,1-1.16,1.15h0v11.09h0c.45.46.8.8,1.16,1.15l.95,1h72.59l1-1,1.1-1.09Z"/></g><g class="cls-12"><path d="M383.17,300.48h0V289.38h0l-1.05-1-1.07-1.06H308.48l-1,1-1.16,1.15h0v11.09h0l1.16,1.15,1,.95h72.58l1-1,1.1-1.09Z"/></g><g class="cls-11"><path d="M371.21,285.22h0V274.1h0l-1-1L369.11,272H296.52l-.95.95-1.16,1.14h0v11.11h0l1.16,1.15.95.95h72.59l1-1,1.09-1.08Z"/></g><g class="cls-12"><path d="M378,270h0v-11.1h0l-1.06-1-1.06-1.06H303.35l-1,.95-1.16,1.15h0V270h0c.45.46.8.8,1.16,1.15l1,1h72.59l1-1,1.1-1.09Z"/></g><path class="cls-6" d="M320.56,228.33v11.09l-2.11,2.11H245.86l-2.11-2.11V228.33c.82-.83,1.29-1.28,2.11-2.11h72.59C319.28,227.05,319.75,227.5,320.56,228.33Z"/><g class="cls-12"><path class="cls-8" d="M320.56,228.33v11.09l-2.11,2.11H245.86l-2.11-2.11V228.33c.82-.83,1.29-1.28,2.11-2.11h72.59C319.28,227.05,319.75,227.5,320.56,228.33Z"/></g><g class="cls-12"><rect class="cls-8" x="243.75" y="232.32" width="76.81" height="5.55"/></g><g class="cls-10"><path d="M245.87,241.53h72.57l2.13-2.1H243.75Z"/></g><g class="cls-12"><path class="cls-8" d="M318.44,226.22H245.87l-2.12,2.09h76.82Z"/></g><g class="cls-13"><rect class="cls-8" x="278.09" y="226.22" width="14.73" height="15.31"/></g><g class="cls-13"><rect class="cls-8" x="299.31" y="226.22" width="7.36" height="15.31"/></g><path class="cls-6" d="M333.8,243.59v11.09l-2.11,2.11H259.1L257,254.68V243.59c.82-.83,1.28-1.28,2.11-2.11h72.59C332.52,242.31,333,242.76,333.8,243.59Z"/><g class="cls-12"><path class="cls-8" d="M333.8,243.59v11.09l-2.11,2.11H259.1L257,254.68V243.59c.82-.83,1.28-1.28,2.11-2.11h72.59C332.52,242.31,333,242.76,333.8,243.59Z"/></g><g class="cls-12"><rect class="cls-8" x="256.99" y="247.58" width="76.81" height="5.55"/></g><g class="cls-10"><path d="M259.11,256.79h72.57l2.12-2.1H257Z"/></g><g class="cls-12"><path class="cls-8" d="M331.68,241.48H259.11l-2.13,2.1H333.8Z"/></g><g class="cls-13"><rect class="cls-8" x="291.33" y="241.48" width="14.73" height="15.31"/></g><g class="cls-13"><rect class="cls-8" x="312.54" y="241.48" width="7.36" height="15.31"/></g><path class="cls-6" d="M328.68,258.85v11.09l-2.11,2.11H254l-2.11-2.11V258.85c.82-.83,1.28-1.28,2.11-2.11h72.59C327.4,257.57,327.86,258,328.68,258.85Z"/><g class="cls-12"><path class="cls-8" d="M328.68,258.85v11.09l-2.11,2.11H254l-2.11-2.11V258.85c.82-.83,1.28-1.28,2.11-2.11h72.59C327.4,257.57,327.86,258,328.68,258.85Z"/></g><g class="cls-12"><rect class="cls-8" x="251.87" y="262.84" width="76.81" height="5.55"/></g><g class="cls-10"><path d="M254,272.05h72.57l2.12-2.1H251.87Z"/></g><g class="cls-12"><path class="cls-8" d="M326.56,256.74H254l-2.12,2.1h76.81Z"/></g><g class="cls-13"><rect class="cls-8" x="286.21" y="256.74" width="14.73" height="15.31"/></g><g class="cls-13"><rect class="cls-8" x="307.42" y="256.74" width="7.36" height="15.31"/></g><path class="cls-6" d="M321.85,274.11v11.1l-2.11,2.11H247.15L245,285.21v-11.1l2.11-2.11h72.59Z"/><g class="cls-12"><path class="cls-8" d="M321.85,274.11v11.1l-2.11,2.11H247.15L245,285.21v-11.1l2.11-2.11h72.59Z"/></g><g class="cls-12"><rect class="cls-8" x="245.04" y="278.1" width="76.81" height="5.55"/></g><g class="cls-10"><path d="M247.16,287.31h72.57l2.12-2.09H245Z"/></g><g class="cls-12"><path class="cls-8" d="M319.73,272H247.16L245,274.1h76.82Z"/></g><g class="cls-13"><rect class="cls-8" x="279.38" y="272" width="14.73" height="15.31"/></g><g class="cls-13"><rect class="cls-8" x="300.59" y="272" width="7.36" height="15.31"/></g><path class="cls-6" d="M333.8,289.38v11.09l-2.11,2.11H259.1L257,300.47V289.38l2.11-2.11h72.59Z"/><g class="cls-12"><path class="cls-8" d="M333.8,289.38v11.09l-2.11,2.11H259.1L257,300.47V289.38l2.11-2.11h72.59Z"/></g><g class="cls-12"><rect class="cls-8" x="256.99" y="293.37" width="76.81" height="5.55"/></g><g class="cls-10"><path d="M259.11,302.58h72.57l2.12-2.1H257Z"/></g><g class="cls-12"><path class="cls-8" d="M331.68,287.27H259.11L257,289.36H333.8Z"/></g><g class="cls-13"><rect class="cls-8" x="291.33" y="287.27" width="14.73" height="15.31"/></g><g class="cls-13"><rect class="cls-8" x="312.54" y="287.27" width="7.36" height="15.31"/></g><path class="cls-6" d="M318.86,304.64v11.09l-2.12,2.11H244.16l-2.11-2.11V304.64c.81-.83,1.28-1.28,2.11-2.11h72.58C317.57,303.36,318,303.81,318.86,304.64Z"/><g class="cls-12"><path class="cls-8" d="M318.86,304.64v11.09l-2.12,2.11H244.16l-2.11-2.11V304.64c.81-.83,1.28-1.28,2.11-2.11h72.58C317.57,303.36,318,303.81,318.86,304.64Z"/></g><g class="cls-12"><rect class="cls-8" x="242.05" y="308.63" width="76.81" height="5.55"/></g><g class="cls-10"><path d="M244.16,317.84h72.58l2.12-2.1H242Z"/></g><g class="cls-12"><path class="cls-8" d="M316.74,302.53H244.16l-2.12,2.1h76.82Z"/></g><g class="cls-13"><rect class="cls-8" x="276.38" y="302.53" width="14.73" height="15.31"/></g><g class="cls-13"><rect class="cls-8" x="297.6" y="302.53" width="7.36" height="15.31"/></g><path class="cls-6" d="M324.83,319.9V331l-2.11,2.11H250.13L248,331V319.9l2.11-2.11h72.59C323.55,318.62,324,319.07,324.83,319.9Z"/><g class="cls-12"><path class="cls-8" d="M324.83,319.9V331l-2.11,2.11H250.13L248,331V319.9l2.11-2.11h72.59C323.55,318.62,324,319.07,324.83,319.9Z"/></g><g class="cls-12"><rect class="cls-8" x="248.02" y="323.89" width="76.81" height="5.55"/></g><g class="cls-10"><path d="M250.14,333.1h72.57l2.13-2.1H248Z"/></g><g class="cls-12"><path class="cls-8" d="M322.71,317.79H250.14l-2.12,2.1h76.82Z"/></g><g class="cls-13"><rect class="cls-8" x="282.36" y="317.79" width="14.73" height="15.31"/></g><g class="cls-13"><rect class="cls-8" x="303.58" y="317.79" width="7.36" height="15.31"/></g><path class="cls-6" d="M342,335.17v11.09l-2.11,2.11H267.28l-2.11-2.11V335.17c.82-.83,1.28-1.28,2.11-2.11h72.59C340.7,333.89,341.16,334.34,342,335.17Z"/><g class="cls-12"><path class="cls-8" d="M342,335.17v11.09l-2.11,2.11H267.28l-2.11-2.11V335.17c.82-.83,1.28-1.28,2.11-2.11h72.59C340.7,333.89,341.16,334.34,342,335.17Z"/></g><g class="cls-12"><rect class="cls-8" x="265.17" y="339.16" width="76.81" height="5.55"/></g><g class="cls-10"><path d="M267.29,348.37h72.57l2.13-2.1H265.17Z"/></g><g class="cls-12"><path class="cls-8" d="M339.86,333.06H267.29l-2.12,2.09H342Z"/></g><g class="cls-13"><rect class="cls-8" x="299.51" y="333.06" width="14.73" height="15.31"/></g><g class="cls-13"><rect class="cls-8" x="320.73" y="333.06" width="7.36" height="15.31"/></g><path class="cls-6" d="M324.83,350.43v11.09l-2.11,2.11H250.13L248,361.52V350.43l2.11-2.11h72.59C323.55,349.15,324,349.6,324.83,350.43Z"/><g class="cls-12"><path class="cls-8" d="M324.83,350.43v11.09l-2.11,2.11H250.13L248,361.52V350.43l2.11-2.11h72.59C323.55,349.15,324,349.6,324.83,350.43Z"/></g><g class="cls-12"><rect class="cls-8" x="248.02" y="354.42" width="76.81" height="5.55"/></g><g class="cls-10"><path d="M250.14,363.63h72.57l2.13-2.1H248Z"/></g><g class="cls-12"><path class="cls-8" d="M322.71,348.32H250.14l-2.12,2.1h76.82Z"/></g><g class="cls-13"><rect class="cls-8" x="282.36" y="348.32" width="14.73" height="15.31"/></g><g class="cls-13"><rect class="cls-8" x="303.58" y="348.32" width="7.36" height="15.31"/></g><path class="cls-6" d="M231.31,304.64v11.09l-2.11,2.11H156.61l-2.11-2.11V304.64l2.11-2.11H229.2Z"/><g class="cls-12"><path class="cls-8" d="M231.31,304.64v11.09l-2.11,2.11H156.61l-2.11-2.11V304.64l2.11-2.11H229.2Z"/></g><g class="cls-12"><rect class="cls-8" x="154.5" y="308.63" width="76.81" height="5.55"/></g><g class="cls-10"><path d="M156.62,317.84h72.57l2.12-2.1H154.49Z"/></g><g class="cls-12"><path class="cls-8" d="M229.19,302.53H156.62l-2.13,2.1h76.82Z"/></g><g class="cls-13"><rect class="cls-8" x="188.84" y="302.53" width="14.73" height="15.31"/></g><g class="cls-13"><rect class="cls-8" x="210.05" y="302.53" width="7.36" height="15.31"/></g><path class="cls-6" d="M237.28,319.9V331l-2.11,2.11H162.59L160.48,331V319.9c.81-.83,1.28-1.28,2.11-2.11h72.58C236,318.62,236.47,319.07,237.28,319.9Z"/><g class="cls-12"><path class="cls-8" d="M237.28,319.9V331l-2.11,2.11H162.59L160.48,331V319.9c.81-.83,1.28-1.28,2.11-2.11h72.58C236,318.62,236.47,319.07,237.28,319.9Z"/></g><g class="cls-12"><rect class="cls-8" x="160.48" y="323.89" width="76.81" height="5.55"/></g><g class="cls-10"><path d="M162.59,333.1h72.58l2.12-2.1H160.47Z"/></g><g class="cls-12"><path class="cls-8" d="M235.17,317.79H162.59l-2.12,2.1h76.82Z"/></g><g class="cls-13"><rect class="cls-8" x="194.81" y="317.79" width="14.73" height="15.31"/></g><g class="cls-13"><rect class="cls-8" x="216.03" y="317.79" width="7.36" height="15.31"/></g><path class="cls-6" d="M243.18,335.17v11.09l-2.11,2.11H168.48l-2.11-2.11V335.17c.82-.83,1.28-1.28,2.11-2.11h72.59C241.9,333.89,242.36,334.34,243.18,335.17Z"/><g class="cls-12"><path class="cls-8" d="M243.18,335.17v11.09l-2.11,2.11H168.48l-2.11-2.11V335.17c.82-.83,1.28-1.28,2.11-2.11h72.59C241.9,333.89,242.36,334.34,243.18,335.17Z"/></g><g class="cls-12"><rect class="cls-8" x="166.37" y="339.16" width="76.81" height="5.55"/></g><g class="cls-10"><path d="M168.49,348.37h72.57l2.12-2.1H166.36Z"/></g><g class="cls-12"><path class="cls-8" d="M241.06,333.06H168.49l-2.13,2.09h76.82Z"/></g><g class="cls-13"><rect class="cls-8" x="200.71" y="333.06" width="14.73" height="15.31"/></g><g class="cls-13"><rect class="cls-8" x="221.92" y="333.06" width="7.36" height="15.31"/></g><path class="cls-6" d="M226,350.43v11.09l-2.11,2.11H151.33l-2.11-2.11V350.43l2.11-2.11h72.59Z"/><g class="cls-12"><path class="cls-8" d="M226,350.43v11.09l-2.11,2.11H151.33l-2.11-2.11V350.43l2.11-2.11h72.59Z"/></g><g class="cls-12"><rect class="cls-8" x="149.22" y="354.42" width="76.81" height="5.55"/></g><g class="cls-10"><path d="M151.34,363.63h72.57l2.12-2.1H149.21Z"/></g><g class="cls-12"><path class="cls-8" d="M223.91,348.32H151.34l-2.13,2.1H226Z"/></g><g class="cls-13"><rect class="cls-8" x="183.56" y="348.32" width="14.73" height="15.31"/></g><g class="cls-13"><rect class="cls-8" x="204.77" y="348.32" width="7.36" height="15.31"/></g><path class="cls-6" d="M422.42,274.11v11.1l-2.11,2.11H347.72l-2.11-2.11v-11.1l2.11-2.11h72.59Z"/><g class="cls-12"><path class="cls-8" d="M422.42,274.11v11.1l-2.11,2.11H347.72l-2.11-2.11v-11.1l2.11-2.11h72.59Z"/></g><g class="cls-12"><rect class="cls-8" x="345.61" y="278.1" width="76.81" height="5.55"/></g><g class="cls-10"><path d="M347.73,287.31H420.3l2.12-2.09H345.61Z"/></g><g class="cls-12"><path class="cls-8" d="M420.3,272H347.73l-2.12,2.1h76.81Z"/></g><g class="cls-13"><rect class="cls-8" x="379.95" y="272" width="14.73" height="15.31"/></g><g class="cls-13"><rect class="cls-8" x="401.16" y="272" width="7.36" height="15.31"/></g><path class="cls-6" d="M434.37,289.38v11.09l-2.11,2.11H359.67l-2.11-2.11V289.38l2.11-2.11h72.59Z"/><g class="cls-12"><path class="cls-8" d="M434.37,289.38v11.09l-2.11,2.11H359.67l-2.11-2.11V289.38l2.11-2.11h72.59Z"/></g><g class="cls-12"><rect class="cls-8" x="357.56" y="293.37" width="76.81" height="5.55"/></g><g class="cls-10"><path d="M359.68,302.58h72.57l2.12-2.1H357.56Z"/></g><g class="cls-12"><path class="cls-8" d="M432.25,287.27H359.68l-2.12,2.09h76.81Z"/></g><g class="cls-13"><rect class="cls-8" x="391.9" y="287.27" width="14.73" height="15.31"/></g><g class="cls-13"><rect class="cls-8" x="413.11" y="287.27" width="7.36" height="15.31"/></g><path class="cls-6" d="M419.43,304.64v11.09l-2.12,2.11H344.73l-2.11-2.11V304.64c.81-.83,1.28-1.28,2.11-2.11h72.58C418.14,303.36,418.61,303.81,419.43,304.64Z"/><g class="cls-12"><path class="cls-8" d="M419.43,304.64v11.09l-2.12,2.11H344.73l-2.11-2.11V304.64c.81-.83,1.28-1.28,2.11-2.11h72.58C418.14,303.36,418.61,303.81,419.43,304.64Z"/></g><g class="cls-12"><rect class="cls-8" x="342.62" y="308.63" width="76.81" height="5.55"/></g><g class="cls-10"><path d="M344.73,317.84h72.58l2.12-2.1H342.61Z"/></g><g class="cls-12"><path class="cls-8" d="M417.31,302.53H344.73l-2.12,2.1h76.82Z"/></g><g class="cls-13"><rect class="cls-8" x="376.95" y="302.53" width="14.73" height="15.31"/></g><g class="cls-13"><rect class="cls-8" x="398.17" y="302.53" width="7.36" height="15.31"/></g><path class="cls-6" d="M425.4,319.9V331l-2.11,2.11H350.7L348.59,331V319.9l2.11-2.11h72.59C424.12,318.62,424.59,319.07,425.4,319.9Z"/><g class="cls-12"><path class="cls-8" d="M425.4,319.9V331l-2.11,2.11H350.7L348.59,331V319.9l2.11-2.11h72.59C424.12,318.62,424.59,319.07,425.4,319.9Z"/></g><g class="cls-12"><rect class="cls-8" x="348.59" y="323.89" width="76.81" height="5.55"/></g><g class="cls-10"><path d="M350.71,333.1h72.57l2.13-2.1H348.59Z"/></g><g class="cls-12"><path class="cls-8" d="M423.28,317.79H350.71l-2.12,2.1h76.82Z"/></g><g class="cls-13"><rect class="cls-8" x="382.93" y="317.79" width="14.73" height="15.31"/></g><g class="cls-13"><rect class="cls-8" x="404.15" y="317.79" width="7.36" height="15.31"/></g><path class="cls-6" d="M431.89,335.17v11.09l-2.11,2.11H357.2l-2.12-2.11V335.17c.82-.83,1.29-1.28,2.12-2.11h72.58C430.61,333.89,431.08,334.34,431.89,335.17Z"/><g class="cls-12"><path class="cls-8" d="M431.89,335.17v11.09l-2.11,2.11H357.2l-2.12-2.11V335.17c.82-.83,1.29-1.28,2.12-2.11h72.58C430.61,333.89,431.08,334.34,431.89,335.17Z"/></g><g class="cls-12"><rect class="cls-8" x="355.08" y="339.16" width="76.81" height="5.55"/></g><g class="cls-10"><path d="M357.2,348.37h72.57l2.13-2.1H355.08Z"/></g><g class="cls-12"><path class="cls-8" d="M429.77,333.06H357.2l-2.12,2.09H431.9Z"/></g><g class="cls-13"><rect class="cls-8" x="389.42" y="333.06" width="14.73" height="15.31"/></g><g class="cls-13"><rect class="cls-8" x="410.64" y="333.06" width="7.36" height="15.31"/></g><path class="cls-6" d="M425.4,350.43v11.09l-2.11,2.11H350.71l-2.12-2.11V350.43c.82-.83,1.29-1.28,2.12-2.11h72.58C424.12,349.15,424.59,349.6,425.4,350.43Z"/><g class="cls-12"><path class="cls-8" d="M425.4,350.43v11.09l-2.11,2.11H350.71l-2.12-2.11V350.43c.82-.83,1.29-1.28,2.12-2.11h72.58C424.12,349.15,424.59,349.6,425.4,350.43Z"/></g><g class="cls-12"><rect class="cls-8" x="348.59" y="354.42" width="76.81" height="5.55"/></g><g class="cls-10"><path d="M350.71,363.63h72.57l2.13-2.1H348.59Z"/></g><g class="cls-12"><path class="cls-8" d="M423.28,348.32H350.71l-2.12,2.1h76.82Z"/></g><g class="cls-13"><rect class="cls-8" x="382.93" y="348.32" width="14.73" height="15.31"/></g><g class="cls-13"><rect class="cls-8" x="404.15" y="348.32" width="7.36" height="15.31"/></g><path class="cls-6" d="M372.45,230.78s-2.53,4.54,1.52,10.71c2.39,3.64,5.66,4.67,7.65,3.38s2.37-4.71,0-8.37C377.63,230.3,372.45,230.78,372.45,230.78Z"/><path class="cls-14" d="M372.45,230.78s-2.53,4.54,1.52,10.71c2.39,3.64,5.66,4.67,7.65,3.38s2.37-4.71,0-8.37C377.63,230.3,372.45,230.78,372.45,230.78Z"/><path class="cls-6" d="M408.33,209.24s-8.77-2-17,7.81c-4.84,5.75-4.94,11.68-1.81,14.34s9,1.59,13.85-4.13C411.68,217.57,408.33,209.24,408.33,209.24Z"/><path class="cls-6" d="M396.82,170.53s-1.95.53-2.56,3.35c-.36,1.67.25,2.86,1.15,3.06s2-.63,2.34-2.29A4.17,4.17,0,0,0,396.82,170.53Z"/><path class="cls-6" d="M381.3,257.31A41.81,41.81,0,0,1,379.74,245a48.38,48.38,0,0,1,1.75-11.89,58.11,58.11,0,0,1,1.86-5.59c.35-.91.72-1.81,1.12-2.69.19-.45.4-.89.6-1.33l.3-.63.29-.62c1.57-3.29,3.06-6.6,4.4-10a104,104,0,0,0,3.53-10.24,62.65,62.65,0,0,0,2.08-10.58,38.06,38.06,0,0,0-.34-10.76,26.92,26.92,0,0,0-4-10.09,27.67,27.67,0,0,1,5.24,9.79,40,40,0,0,1,1.59,11.17,65.43,65.43,0,0,1-.93,11.27,105.54,105.54,0,0,1-2.47,11c-1,3.62-2.15,7.19-3.37,10.71l-.23.66-.11.33-.1.31c-.14.42-.29.83-.41,1.25-.26.84-.51,1.67-.73,2.51q-.66,2.52-1.07,5.06a40.31,40.31,0,0,0-.36,10,32.85,32.85,0,0,0,2.29,9.4Z"/><path class="cls-15" d="M381.3,257.31A41.81,41.81,0,0,1,379.74,245a48.38,48.38,0,0,1,1.75-11.89,58.11,58.11,0,0,1,1.86-5.59c.35-.91.72-1.81,1.12-2.69.19-.45.4-.89.6-1.33l.3-.63.29-.62c1.57-3.29,3.06-6.6,4.4-10a104,104,0,0,0,3.53-10.24,62.65,62.65,0,0,0,2.08-10.58,38.06,38.06,0,0,0-.34-10.76,26.92,26.92,0,0,0-4-10.09,27.67,27.67,0,0,1,5.24,9.79,40,40,0,0,1,1.59,11.17,65.43,65.43,0,0,1-.93,11.27,105.54,105.54,0,0,1-2.47,11c-1,3.62-2.15,7.19-3.37,10.71l-.23.66-.11.33-.1.31c-.14.42-.29.83-.41,1.25-.26.84-.51,1.67-.73,2.51q-.66,2.52-1.07,5.06a40.31,40.31,0,0,0-.36,10,32.85,32.85,0,0,0,2.29,9.4Z"/><path class="cls-6" d="M399.81,247.72l-.28,3.07-1.78,20a1.38,1.38,0,0,1-1.36,1.24H373.72a1.36,1.36,0,0,1-1.36-1.24l-1.79-20-.27-3.07Z"/><rect class="cls-6" x="395.7" y="262.28" width="7.19" height="0.27" transform="translate(102.38 636.77) rotate(-84.89)"/><rect class="cls-6" x="399.04" y="255.75" width="1.7" height="0.27" transform="translate(109.43 631.41) rotate(-84.89)"/><path class="cls-6" d="M385.92,189.54s-3.54,4.72.07,12.28c2.13,4.46,5.65,6.12,8.09,5s3.39-4.93,1.29-9.41C391.81,189.79,385.92,189.54,385.92,189.54Z"/><path class="cls-15" d="M385.92,189.54s-3.54,4.72.07,12.28c2.13,4.46,5.65,6.12,8.09,5s3.39-4.93,1.29-9.41C391.81,189.79,385.92,189.54,385.92,189.54Z"/><polygon class="cls-15" points="399.81 247.72 399.53 250.79 370.57 250.79 370.3 247.72 399.81 247.72"/><rect class="cls-6" x="367.9" y="243.93" width="34.3" height="5.32" rx="0.64"/><path class="cls-6" d="M417.62,195.77a10.75,10.75,0,1,1-5.13-14.31A10.76,10.76,0,0,1,417.62,195.77Z"/><path class="cls-16" d="M416.52,193.85a8.8,8.8,0,1,0-15.75,2.87,9,9,0,1,1,15.75-2.87Z"/><path class="cls-6" d="M386.64,224.05a7.75,7.75,0,1,1-3.7-10.32A7.75,7.75,0,0,1,386.64,224.05Z"/><path class="cls-16" d="M385.85,222.67a6.35,6.35,0,1,0-11.36,2.07,6.51,6.51,0,1,1,11.36-2.07Z"/><path class="cls-8" d="M411.15,188.53a.72.72,0,1,0,0-1.43h-5.53a.72.72,0,1,0,0,1.43h1.58a1.83,1.83,0,0,1,1.5,1h-3.08a.72.72,0,1,0,0,1.43h3.08a1.07,1.07,0,0,1-.32.46,1.63,1.63,0,0,1-1.18.5h-1.58a.72.72,0,0,0-.67.46.71.71,0,0,0,.18.78l4,3.75a.72.72,0,0,0,1.21-.35.74.74,0,0,0-.23-.7l-2.65-2.51a3,3,0,0,0,2-.91,2.83,2.83,0,0,0,.82-1.48h.94a.72.72,0,1,0,0-1.43h-.94a3.92,3.92,0,0,0-.4-1Z"/><path class="cls-8" d="M382,218.87a.51.51,0,0,0,0-1h-3.94a.51.51,0,0,0,0,1h1.13a1.3,1.3,0,0,1,1.06.68h-2.19a.52.52,0,0,0,0,1h2.19a.69.69,0,0,1-.23.33,1.18,1.18,0,0,1-.83.35h-1.13a.53.53,0,0,0-.48.32.51.51,0,0,0,.13.56l2.82,2.67a.51.51,0,0,0,.5.13.51.51,0,0,0,.2-.87l-1.89-1.79a2.18,2.18,0,0,0,1.4-.65,2,2,0,0,0,.59-1H382a.52.52,0,0,0,0-1h-.67a3,3,0,0,0-.29-.68Z"/><path class="cls-6" d="M268,171.29s-4.46,7.26,1.76,17.66c3.66,6.13,9,8.05,12.31,6.06s4.2-7.56.58-13.71C276.47,170.86,268,171.29,268,171.29Z"/><path class="cls-14" d="M268,171.29s-4.46,7.26,1.76,17.66c3.66,6.13,9,8.05,12.31,6.06s4.2-7.56.58-13.71C276.47,170.86,268,171.29,268,171.29Z"/><path class="cls-6" d="M311.35,152s-10.74-2.39-20.8,9.57c-5.94,7-6.06,14.32-2.22,17.57s11,2,17-5.05C315.46,162.25,311.35,152,311.35,152Z"/><path class="cls-6" d="M298.62,99.31s-3.39.93-4.45,5.82c-.62,2.89.44,5,2,5.3s3.4-1.09,4-4C301.31,101.58,298.62,99.31,298.62,99.31Z"/><path class="cls-6" d="M278.82,208.42a51.6,51.6,0,0,1-1.92-15,59.31,59.31,0,0,1,2.15-14.58,71.35,71.35,0,0,1,2.27-6.85q.65-1.68,1.38-3.3c.23-.55.49-1.08.73-1.62l.37-.78.36-.76c1.92-4,3.74-8.09,5.39-12.21a122.12,122.12,0,0,0,4.32-12.54,75.7,75.7,0,0,0,2.55-13,46.73,46.73,0,0,0-.4-13.2,33.06,33.06,0,0,0-5-12.36,34,34,0,0,1,6.42,12,49,49,0,0,1,1.95,13.69,80.85,80.85,0,0,1-1.14,13.81,129.1,129.1,0,0,1-3,13.5c-1.22,4.43-2.63,8.81-4.12,13.13l-.28.81-.14.4-.13.38c-.17.51-.35,1-.5,1.53-.32,1-.62,2-.89,3.08a58.8,58.8,0,0,0-1.31,6.19,49.53,49.53,0,0,0-.44,12.31,40,40,0,0,0,2.8,11.51Z"/><path class="cls-15" d="M278.82,208.42a51.6,51.6,0,0,1-1.92-15,59.31,59.31,0,0,1,2.15-14.58,71.35,71.35,0,0,1,2.27-6.85q.65-1.68,1.38-3.3c.23-.55.49-1.08.73-1.62l.37-.78.36-.76c1.92-4,3.74-8.09,5.39-12.21a122.12,122.12,0,0,0,4.32-12.54,75.7,75.7,0,0,0,2.55-13,46.73,46.73,0,0,0-.4-13.2,33.06,33.06,0,0,0-5-12.36,34,34,0,0,1,6.42,12,49,49,0,0,1,1.95,13.69,80.85,80.85,0,0,1-1.14,13.81,129.1,129.1,0,0,1-3,13.5c-1.22,4.43-2.63,8.81-4.12,13.13l-.28.81-.14.4-.13.38c-.17.51-.35,1-.5,1.53-.32,1-.62,2-.89,3.08a58.8,58.8,0,0,0-1.31,6.19,49.53,49.53,0,0,0-.44,12.31,40,40,0,0,0,2.8,11.51Z"/><path class="cls-6" d="M301.5,196.65l-.34,3.77L299,224.88a1.67,1.67,0,0,1-1.66,1.52H269.53a1.67,1.67,0,0,1-1.67-1.52l-2.19-24.46-.34-3.77Z"/><rect class="cls-6" x="296.47" y="214.5" width="8.82" height="0.33" transform="translate(60.28 495.24) rotate(-84.89)"/><rect class="cls-6" x="300.55" y="206.5" width="2.08" height="0.33" transform="translate(68.89 488.66) rotate(-84.89)"/><path class="cls-6" d="M287.21,110.43s-3.62,4.82.07,12.54c2.17,4.55,5.77,6.26,8.26,5.08s3.46-5,1.32-9.61C293.22,110.69,287.21,110.43,287.21,110.43Z"/><path class="cls-15" d="M287.21,110.43s-3.62,4.82.07,12.54c2.17,4.55,5.77,6.26,8.26,5.08s3.46-5,1.32-9.61C293.22,110.69,287.21,110.43,287.21,110.43Z"/><polygon class="cls-15" points="301.5 196.65 301.16 200.42 265.67 200.42 265.33 196.65 301.5 196.65"/><rect class="cls-6" x="262.39" y="192.01" width="42.04" height="6.53" rx="0.79"/><circle class="cls-6" cx="311.61" cy="130.55" r="13.18" transform="translate(-7.39 19.28) rotate(-3.5)"/><path class="cls-16" d="M322.18,133.83a10.79,10.79,0,1,0-19.3,3.52,11.06,11.06,0,1,1,19.3-3.52Z"/><circle class="cls-6" cx="278.37" cy="147.82" r="13.18" transform="translate(70.92 385.1) rotate(-76.81)"/><path class="cls-16" d="M288.94,151.09a10.79,10.79,0,1,0-19.3,3.52,11.06,11.06,0,1,1,19.3-3.52Z"/><path class="cls-8" d="M281,144.85a.72.72,0,0,0,0-1.44h-5.54a.72.72,0,0,0,0,1.44h1.59a1.84,1.84,0,0,1,1.49,1h-3.08a.72.72,0,0,0,0,1.44h3.08a1,1,0,0,1-.32.46,1.66,1.66,0,0,1-1.17.49h-1.59a.74.74,0,0,0-.66.46.73.73,0,0,0,.17.79l4,3.74a.71.71,0,0,0,.71.19.74.74,0,0,0,.5-.54.7.7,0,0,0-.23-.69l-2.65-2.51a3,3,0,0,0,2-.91,3,3,0,0,0,.83-1.48H281a.72.72,0,0,0,0-1.44h-.95a4,4,0,0,0-.39-1Z"/><path class="cls-8" d="M314.38,127.81a.72.72,0,1,0,0-1.43h-5.54a.72.72,0,0,0,0,1.43h1.59a1.83,1.83,0,0,1,1.49,1h-3.08a.72.72,0,0,0,0,1.43h3.08a1,1,0,0,1-.32.47,1.66,1.66,0,0,1-1.17.49h-1.59a.71.71,0,0,0-.66.46.73.73,0,0,0,.17.79l4,3.74a.74.74,0,0,0,.71.18.71.71,0,0,0,.5-.53.7.7,0,0,0-.23-.69l-2.65-2.51a3.1,3.1,0,0,0,2-.91,3,3,0,0,0,.83-1.49h.94a.72.72,0,1,0,0-1.43h-.95a3.88,3.88,0,0,0-.39-1Z"/><path class="cls-6" d="M188.38,265.34s-3.71,3-2.33,9.72c.81,3.94,3.27,5.94,5.42,5.5s3.64-3.24,2.85-7.18C193,266.69,188.38,265.34,188.38,265.34Z"/><path class="cls-14" d="M188.38,265.34s-3.71,3-2.33,9.72c.81,3.94,3.27,5.94,5.42,5.5s3.64-3.24,2.85-7.18C193,266.69,188.38,265.34,188.38,265.34Z"/><path class="cls-6" d="M211.47,251.92s-6.22-1.38-12,5.54c-3.43,4.07-3.5,8.28-1.28,10.16s6.35,1.13,9.81-2.92C213.84,257.83,211.47,251.92,211.47,251.92Z"/><path class="cls-6" d="M204.81,225.43s-2.07.58-2.72,3.57c-.38,1.76.27,3,1.23,3.24s2.08-.66,2.47-2.43C206.46,226.82,204.81,225.43,204.81,225.43Z"/><path class="cls-6" d="M190.76,289.84a32.94,32.94,0,0,1-1.22-9.56,37.55,37.55,0,0,1,1.37-9.27,45.21,45.21,0,0,1,1.44-4.35q.42-1.07.87-2.1c.15-.35.32-.69.47-1l.24-.5.23-.48c1.21-2.56,2.37-5.14,3.42-7.76a78.3,78.3,0,0,0,2.75-8,48.23,48.23,0,0,0,1.62-8.24,29.51,29.51,0,0,0-.26-8.39,21,21,0,0,0-3.15-7.85,21.35,21.35,0,0,1,4.08,7.62,31.17,31.17,0,0,1,1.24,8.7,50.5,50.5,0,0,1-.72,8.78,83.16,83.16,0,0,1-1.93,8.58c-.78,2.82-1.67,5.6-2.62,8.35l-.18.51-.09.26-.08.24c-.1.33-.22.65-.32,1-.2.65-.39,1.3-.56,1.95a38.94,38.94,0,0,0-.84,3.94,31.17,31.17,0,0,0-.27,7.82,25.32,25.32,0,0,0,1.78,7.32Z"/><path class="cls-15" d="M190.76,289.84a32.94,32.94,0,0,1-1.22-9.56,37.55,37.55,0,0,1,1.37-9.27,45.21,45.21,0,0,1,1.44-4.35q.42-1.07.87-2.1c.15-.35.32-.69.47-1l.24-.5.23-.48c1.21-2.56,2.37-5.14,3.42-7.76a78.3,78.3,0,0,0,2.75-8,48.23,48.23,0,0,0,1.62-8.24,29.51,29.51,0,0,0-.26-8.39,21,21,0,0,0-3.15-7.85,21.35,21.35,0,0,1,4.08,7.62,31.17,31.17,0,0,1,1.24,8.7,50.5,50.5,0,0,1-.72,8.78,83.16,83.16,0,0,1-1.93,8.58c-.78,2.82-1.67,5.6-2.62,8.35l-.18.51-.09.26-.08.24c-.1.33-.22.65-.32,1-.2.65-.39,1.3-.56,1.95a38.94,38.94,0,0,0-.84,3.94,31.17,31.17,0,0,0-.27,7.82,25.32,25.32,0,0,0,1.78,7.32Z"/><path class="cls-6" d="M209.85,278.24l-.27,3.07-1.79,20a1.36,1.36,0,0,1-1.36,1.24H183.76a1.38,1.38,0,0,1-1.36-1.24l-1.78-20-.28-3.07Z"/><rect class="cls-6" x="205.75" y="292.8" width="7.19" height="0.27" transform="translate(-101.06 475.38) rotate(-84.89)"/><rect class="cls-6" x="209.08" y="286.27" width="1.7" height="0.27" transform="translate(-94.03 470.01) rotate(-84.89)"/><path class="cls-6" d="M193.39,231.38s-3.2,4.27.07,11.12c1.93,4,5.12,5.54,7.32,4.5s3.07-4.47,1.17-8.52C198.73,231.61,193.39,231.38,193.39,231.38Z"/><path class="cls-15" d="M193.39,231.38s-3.2,4.27.07,11.12c1.93,4,5.12,5.54,7.32,4.5s3.07-4.47,1.17-8.52C198.73,231.61,193.39,231.38,193.39,231.38Z"/><polygon class="cls-15" points="209.85 278.24 209.58 281.31 180.62 281.31 180.34 278.24 209.85 278.24"/><rect class="cls-6" x="177.94" y="274.45" width="34.3" height="5.32" rx="0.64"/><path class="cls-6" d="M212.28,243.92a4.82,4.82,0,1,1-2.3-6.41A4.82,4.82,0,0,1,212.28,243.92Z"/><path class="cls-16" d="M211.79,243.06a3.95,3.95,0,1,0-7.06,1.29,4,4,0,1,1,7.06-1.29Z"/><path class="cls-6" d="M196.42,258.48a4.82,4.82,0,1,1-2.3-6.42A4.82,4.82,0,0,1,196.42,258.48Z"/><path class="cls-16" d="M195.93,257.62a3.95,3.95,0,1,0-7.06,1.29,4,4,0,1,1,7.06-1.29Z"/><path class="cls-8" d="M193.14,255.41a.27.27,0,1,0,0-.54h-2.09a.27.27,0,0,0,0,.54h.6a.68.68,0,0,1,.56.36h-1.16a.28.28,0,0,0-.27.28.27.27,0,0,0,.27.27h1.16a.3.3,0,0,1-.12.17.63.63,0,0,1-.44.19h-.6a.3.3,0,0,0-.26.17.28.28,0,0,0,.07.3l1.5,1.42a.27.27,0,0,0,.27.07.29.29,0,0,0,.19-.2.28.28,0,0,0-.09-.27l-1-.95a1.16,1.16,0,0,0,1.06-.9h.35a.28.28,0,0,0,.28-.27.29.29,0,0,0-.28-.28h-.35a2.13,2.13,0,0,0-.15-.36Z"/><path class="cls-8" d="M209,241.1a.27.27,0,0,0,0-.54h-2.1a.27.27,0,1,0,0,.54h.6a.7.7,0,0,1,.57.36h-1.17a.27.27,0,0,0-.27.27.28.28,0,0,0,.27.28H208a.43.43,0,0,1-.12.17.64.64,0,0,1-.45.19h-.6a.27.27,0,0,0-.25.17.26.26,0,0,0,.07.3l1.5,1.42a.26.26,0,0,0,.26.07.28.28,0,0,0,.11-.47l-1-1a1.16,1.16,0,0,0,.75-.34,1,1,0,0,0,.31-.56H209a.28.28,0,0,0,.27-.28.27.27,0,0,0-.27-.27h-.36a1.54,1.54,0,0,0-.15-.36Z"/><path class="cls-17" d="M107.62,103.68c11.26,1.73,33.64,40.58,29.17,50.11-3.85,8.2-12,10.93-22.54-12.58S107.62,103.68,107.62,103.68Z"/><g class="cls-11"><path d="M107.62,103.68c11.26,1.73,33.64,40.58,29.17,50.11-3.85,8.2-12,10.93-22.54-12.58S107.62,103.68,107.62,103.68Z"/></g><polygon class="cls-18" points="112.77 354.33 120.89 355.19 122.41 337.69 114.3 336.83 112.77 354.33"/><polygon class="cls-18" points="72.29 353.74 80.15 353.74 80.8 335.53 72.93 335.53 72.29 353.74"/><path class="cls-19" d="M81.24,352.83H71.69a.68.68,0,0,0-.67.54l-1.55,7a1.16,1.16,0,0,0,.9,1.37,1.07,1.07,0,0,0,.25,0c3.09,0,5.34-.24,9.22-.24,2.39,0,9.6.25,12.9.25s3.73-3.26,2.38-3.56c-6.06-1.32-10.62-3.15-12.56-4.89A1.89,1.89,0,0,0,81.24,352.83Z"/><path class="cls-6" d="M81.78,353.92a.21.21,0,0,1-.14-.16.17.17,0,0,1,.09-.18c.28-.18,2.82-1.74,3.69-1.29a.55.55,0,0,1,.32.52,1.08,1.08,0,0,1-.39,1,2.36,2.36,0,0,1-1.51.4A9.65,9.65,0,0,1,81.78,353.92Zm.54-.26a3.82,3.82,0,0,0,2.8-.14.75.75,0,0,0,.25-.67c0-.15-.07-.22-.12-.22a.39.39,0,0,0-.24-.05A7.57,7.57,0,0,0,82.32,353.66Z"/><path class="cls-6" d="M81.73,354a.24.24,0,0,1-.09-.17c0-.11.2-2.37,1.11-3.11a1,1,0,0,1,.79-.24.59.59,0,0,1,.6.49c.16.83-1.41,2.56-2.22,3h-.09A.17.17,0,0,1,81.73,354ZM83,350.9a4.46,4.46,0,0,0-.93,2.46c.81-.61,1.81-1.92,1.71-2.43,0-.05,0-.19-.27-.19h-.09A.61.61,0,0,0,83,350.9Z"/><path class="cls-19" d="M121.74,352.58h-9.55a.68.68,0,0,0-.67.54l-1.55,7a1.16,1.16,0,0,0,.9,1.37,1.07,1.07,0,0,0,.25,0c3.09,0,5.34-.24,9.22-.24,2.39,0,9.6.25,12.9.25s3.73-3.26,2.38-3.56c-6.06-1.32-10.62-3.15-12.56-4.89A1.89,1.89,0,0,0,121.74,352.58Z"/><path class="cls-6" d="M122.28,353.67a.21.21,0,0,1-.14-.16.17.17,0,0,1,.09-.18c.28-.18,2.82-1.74,3.69-1.29a.55.55,0,0,1,.32.52,1.08,1.08,0,0,1-.39,1,2.36,2.36,0,0,1-1.51.4A9.65,9.65,0,0,1,122.28,353.67Zm.54-.26a3.82,3.82,0,0,0,2.8-.14.75.75,0,0,0,.25-.67c0-.15-.07-.22-.12-.22a.39.39,0,0,0-.24-.05A7.57,7.57,0,0,0,122.82,353.41Z"/><path class="cls-6" d="M122.23,353.71a.24.24,0,0,1-.09-.17c0-.11.2-2.37,1.11-3.11a1,1,0,0,1,.79-.24.59.59,0,0,1,.6.49c.16.83-1.41,2.56-2.22,3h-.09A.17.17,0,0,1,122.23,353.71Zm1.26-3.06a4.46,4.46,0,0,0-.93,2.46c.81-.61,1.81-1.92,1.71-2.43,0-.05,0-.19-.27-.19h-.09A.61.61,0,0,0,123.49,350.65Z"/><polygon class="cls-20" points="72.93 335.54 80.8 335.54 80.46 344.93 72.59 344.93 72.93 335.54"/><path class="cls-17" d="M76.18,175.8H117.9c4,21.66,15.84,106.92,6.93,175.22l-14.12-.75S112.56,250,100.09,216.48c-1.43,17.94-3.14,37-4.62,47.18-3.63,25-11.92,87.81-11.92,87.81l-14.19-.59S72.63,291,74,266.43C75.48,239.76,76.12,181.28,76.18,175.8Z"/><g class="cls-21"><path d="M76.18,175.8H117.9c4,21.66,15.84,106.92,6.93,175.22l-14.12-.75S112.56,250,100.09,216.48c-1.43,17.94-3.14,37-4.62,47.18-3.63,25-11.92,87.81-11.92,87.81l-14.19-.59S72.63,291,74,266.43C75.48,239.76,76.12,181.28,76.18,175.8Z"/></g><path class="cls-22" d="M119.58,185.88s-12.29,2.84-20.87,0l.77-6.67,20,0Z"/><path class="cls-23" d="M113.39,186.85a49.5,49.5,0,0,1-7.92.22v-7.85l7.92,0Z"/><path class="cls-20" d="M100.09,216.48a111.8,111.8,0,0,1,4.66,18.05c1.17-16-3.5-32.9-3.5-32.9Z"/><path class="cls-19" d="M81.68,80.74S82,88.4,88,86.6,87,78,81.68,80.74Z"/><path class="cls-18" d="M99.48,99.88a8,8,0,0,1-2.74-8.41l-10.8-8.72s1.4,10.7-1.21,16.36c0,0,6.51,6.61,11.49,5.1S99.48,99.88,99.48,99.88Z"/><path class="cls-20" d="M88.36,88l4.28.18,4.1,3.31a8.61,8.61,0,0,0,.05,4.43C90.25,94.85,88.36,88,88.36,88Z"/><path class="cls-6" d="M88.64,107.6l9-3.39,7.5.55s8,18.11,10.89,36.8a299.8,299.8,0,0,1,3,39.26c-.28-.06-11,2.29-20.95-1.09,0,0,6.62-28,3-40.83s-12.35-31.3-12.35-31.3"/><path class="cls-24" d="M88.64,107.6l9-3.39,7.5.55s8,18.11,10.89,36.8a299.8,299.8,0,0,1,3,39.26c-.28-.06-11,2.29-20.95-1.09,0,0,6.62-28,3-40.83s-12.35-31.3-12.35-31.3"/><path class="cls-22" d="M101.09,104.47l-.54,4.92s6.64,12.93,9,21.58,4.29,34.88,4.29,34.88L109.69,173l-3.82-7.15s1-21-2.06-35.16-4.74-20.52-4.74-20.52l-4.61-3.33,3.13-2.63Z"/><polygon class="cls-8" points="99.48 99.88 96.41 102.93 84.73 99.11 93.43 111.99 97.75 105.07 104.77 107.06 99.48 99.88"/><path class="cls-17" d="M99.48,99.88s16.07,3.51,19.51,18,5.44,77.77,5.94,82.87-9.56,5.73-9.56,5.73.54-32.73-.29-41.42c-.3-3.14-.75-13.74-2.18-22C110.39,128.44,106,109.64,99.48,99.88Z"/><path class="cls-17" d="M102.81,101c2.19,1.93,7.39,6,10,10.32l-4.06,2.15,5.55,3.53s-.46,15.59-1.81,23.76c-2.57-14.22-6.81-31.65-13-40.92C99.48,99.88,100.81,100.25,102.81,101Z"/><path class="cls-25" d="M102.81,101c2.19,1.93,7.39,6,10,10.32l-4.06,2.15,5.55,3.53s-.46,15.59-1.81,23.76c-2.57-14.22-6.81-31.65-13-40.92C99.48,99.88,100.81,100.25,102.81,101Z"/><path class="cls-19" d="M111,64.63s1.37,7.57-3.23,8.88c0,0-3.09-7,.08-7.57S111,64.63,111,64.63Z"/><path class="cls-18" d="M107.84,82.88C107.12,87,104,95.76,95.17,93.1S86,83.47,85.82,81.46s1.72-17.62,7.37-19.1,12.5.35,14.65,3.58S107.84,82.88,107.84,82.88Z"/><path class="cls-19" d="M86.32,76.43c-.14.18,5.23,2,5-10.39,0,0,17.84,3.69,22.24-2.09,5.39-7.06,3-8.37-3.63-6.34,0,0-22.86-2.36-25.81,1.42-3.52,4.52-3.47,16.77-3.47,16.77Z"/><path class="cls-19" d="M109.28,60s9.79-9.62-9.51-.9Z"/><path class="cls-18" d="M88.2,77.38S86.62,73,82.59,73c-3.25,0-3.71,4-2.24,6.85,1.14,2.15,4.84,4.84,7.2,2S88.2,77.38,88.2,77.38Z"/><path class="cls-19" d="M97.65,76.5c-.15.61.14,1.18.55,1.25s.83-.38.94-1-.15-1.19-.55-1.26S97.76,75.87,97.65,76.5Z"/><path class="cls-19" d="M104.63,77.7c-.15.62.14,1.19.55,1.26s.82-.39.93-1-.14-1.19-.55-1.25S104.73,77.11,104.63,77.7Z"/><path class="cls-26" d="M102.42,77.63a22.77,22.77,0,0,0,2.07,5.85,3.65,3.65,0,0,1-3.1,0Z"/><path class="cls-19" d="M96.29,72.78a.38.38,0,0,0,.37.14,3,3,0,0,1,2.59.72.37.37,0,0,0,.52,0,.38.38,0,0,0,0-.53h0a3.71,3.71,0,0,0-3.26-.94.37.37,0,0,0-.31.42h0A.77.77,0,0,0,96.29,72.78Z"/><path class="cls-19" d="M99.83,86.6h0a5.72,5.72,0,0,1-4.63-2.52.19.19,0,0,1,.07-.27.18.18,0,0,1,.26,0v0a5.5,5.5,0,0,0,4.31,2.32.18.18,0,0,1,.19.18v0a.2.2,0,0,1-.19.19Z"/><path class="cls-19" d="M108.09,73.9a.31.31,0,0,0,.17-.13.37.37,0,0,0-.2-.49h0a3.7,3.7,0,0,0-3.39.26.39.39,0,0,0-.09.52h0a.39.39,0,0,0,.52.09h0a3,3,0,0,1,2.69-.17A.39.39,0,0,0,108.09,73.9Z"/><path class="cls-17" d="M84.73,99.11s-11.19,5.32-16.22,8.58,2.86,40.43,3.06,47-5.75,51.7-5.75,51.7,17,4.43,30.92,1.12c0,0,9.84-37.54,8.63-57.21C104.2,131.35,98.52,112.71,84.73,99.11Z"/><path class="cls-17" d="M76,185.78s11.45-1.75,18.46-5.72c0,0,0,13-2.19,20.22,0,0-10.88,1.52-17.89.38C74.38,200.66,74.82,193.94,76,185.78Z"/><path class="cls-16" d="M76,185.78s11.45-1.75,18.46-5.72c0,0,0,1.92-.11,4.7-.2,4.43-19.34,8.93-18.89,5.08C75.61,188.55,75.8,187.19,76,185.78Z"/><path class="cls-17" d="M80.35,101.62c2.54-1.42,4.38-2.51,4.38-2.51,13.34,13.15,19.08,31,20.5,49.31-5.79-14.11-19.25-27-19.25-27l4.15-6.09-7.62-.6A51,51,0,0,0,80.35,101.62Z"/><path class="cls-25" d="M80.35,101.62c2.54-1.42,4.38-2.51,4.38-2.51,13.34,13.15,19.08,31,20.5,49.31-5.79-14.11-19.25-27-19.25-27l4.15-6.09-7.62-.6A51,51,0,0,0,80.35,101.62Z"/><path class="cls-17" d="M119,180.06l6,1-.76,4.61S118.33,185.57,119,180.06Z"/><path class="cls-16" d="M119,180.06l6,1-.76,4.61S118.33,185.57,119,180.06Z"/><path class="cls-27" d="M115.83,134.42l-11.22-14a6.66,6.66,0,0,1-4.15-2c-1.69-1.86-3.56-9.62-2.93-10.06s8-.48,8.61.43,3.06,8.79,3.06,8.79l12.32,11.28Z"/><polygon class="cls-6" points="114.75 119.16 112.05 117.03 104.16 123.07 106.46 126.5 114.75 119.16"/><g class="cls-28"><polygon class="cls-8" points="114.75 119.16 112.05 117.03 104.16 123.07 106.46 126.5 114.75 119.16"/></g><path class="cls-17" d="M134,141.88c-5.5-6.95-19-23.53-19-23.53l-10.3,8.2S119.23,153.94,125,158.6C132.44,164.7,141.74,151.7,134,141.88Z"/><g class="cls-10"><path d="M134,141.88c-5.5-6.95-19-23.53-19-23.53l-10.3,8.2S119.23,153.94,125,158.6C132.44,164.7,141.74,151.7,134,141.88Z"/></g><path class="cls-6" d="M107,203.88a18.39,18.39,0,1,1,18.38-18.41,17.82,17.82,0,0,1-.31,3.34A18.42,18.42,0,0,1,107,203.88Zm0-33a14.62,14.62,0,1,0,2.67.24h0a15.43,15.43,0,0,0-2.71-.24Z"/><path class="cls-18" d="M73.32,173.29l15.47,2.84a6.29,6.29,0,0,0,4.12,2c2.79.31,6.44-.13,6.85-.88.59-1.08,1.72-6.36.49-6.27s-9.28-.79-9.28-.79l-15.24-6.69Z"/><polygon class="cls-6" points="87.32 165.05 91.17 166.71 86.58 179.96 81.53 177.63 87.32 165.05"/><polygon class="cls-29" points="87.32 165.05 91.17 166.71 86.58 179.96 81.53 177.63 87.32 165.05"/><path class="cls-17" d="M68.05,108.11s-9.52,14.65-12.41,31.41a28.55,28.55,0,0,0,1.45,15.57c6.73,16.92,26.6,24.82,26.6,24.82l6.19-14.85s-15.22-7.23-17.46-18.2c-.52-2.53-1.39-3.83-.3-7.44C75.75,127.39,81.41,111.9,68.05,108.11Z"/><path class="cls-16" d="M68.05,108.11s-9.52,14.65-12.41,31.41a28.55,28.55,0,0,0,1.45,15.57c6.73,16.92,26.6,24.82,26.6,24.82l6.19-14.85s-15.22-7.23-17.46-18.2c-.52-2.53-1.39-3.83-.3-7.44C75.75,127.39,81.41,111.9,68.05,108.11Z"/><path class="cls-18" d="M94.23,172.82c2-.23,6.54-3.1,6.8-4.57.14-.81-3.27.32-4.41.44-3.17.36-5.52.69-6.38,2.06S91,173.26,94.23,172.82Z"/><path class="cls-6" d="M152.67,201.11l-3.44-7.23a1,1,0,0,0-1.9.23l-1,4.7-9.84,4.95a3.21,3.21,0,0,1-4.32-1.42,3.16,3.16,0,0,1-.29-2.07l2.26-11.43a2.4,2.4,0,0,0-1.55-2.72l-18.86-6.68a2.41,2.41,0,0,0-2.92,1.1L99.58,202a2.39,2.39,0,0,0,1,3.22l.29.13,27.71,9.89a2.41,2.41,0,0,0,2.36-.41l16.47-14.18,3.87,1.86a1,1,0,0,0,1.37-.41A1,1,0,0,0,152.67,201.11Z"/><path class="cls-6" d="M203.81,269.91h0a.1.1,0,0,1-.09-.11c0-.73,0-1.48,0-2.24a.1.1,0,0,1,.19,0h0c0,.77,0,1.55,0,2.25a.1.1,0,0,1-.09.1Zm.07-4.55a.09.09,0,0,1-.1-.08V263a.1.1,0,0,1,.1-.09h0a.09.09,0,0,1,.09.09v2.33a.09.09,0,0,1-.08.06Zm0-4.58a.1.1,0,0,1-.1-.1v-2.32a.1.1,0,0,1,.1-.1h0a.11.11,0,0,1,.1.1v2.32a.1.1,0,0,1-.1.1Zm0-4.58a.1.1,0,0,1-.1-.09c0-.78,0-1.55,0-2.33a.09.09,0,0,1,.09-.09h0a.09.09,0,0,1,.09.09c0,.78,0,1.55,0,2.29a.1.1,0,0,1-.1.1h0Zm-.09-4.58a.1.1,0,0,1-.09-.1c0-.77,0-1.55-.06-2.32a.08.08,0,0,1,.08-.1h0a.11.11,0,0,1,.1.09c0,.77,0,1.55.06,2.33a.09.09,0,0,1-.1.09Zm-.14-4.58a.11.11,0,0,1-.1-.09c0-.78-.05-1.55-.09-2.29a.08.08,0,0,1,.08-.1h0a.1.1,0,0,1,.1.09l.1,2.29A.1.1,0,0,1,203.65,247Zm-.21-4.58a.1.1,0,0,1-.09-.09c0-.78-.08-1.55-.12-2.29a.09.09,0,0,1,.06-.1h0a.09.09,0,0,1,.09.09c0,.77.09,1.55.13,2.28a.08.08,0,0,1-.07.1Zm-.27-4.57a.09.09,0,0,1-.09-.1l-.16-2.28a.08.08,0,0,1,.08-.1h0a.11.11,0,0,1,.11.08h0l.16,2.29a.12.12,0,0,1-.09.11Zm-.34-4.59a.08.08,0,0,1-.09-.08c-.06-.78-.13-1.55-.2-2.28a.09.09,0,0,1,.07-.11h0a.1.1,0,0,1,.1.08c.07.78.14,1.56.2,2.29a.08.08,0,0,1-.06.1h0Zm-.42-4.56a.1.1,0,0,1-.1-.08c-.08-.78-.15-1.55-.24-2.28a.09.09,0,0,1,.08-.1h0a.08.08,0,0,1,.1.08c.08.78.17,1.55.25,2.28a.1.1,0,0,1-.09.1h0Zm-.51-4.54a.09.09,0,0,1-.09-.08c-.1-.78-.2-1.55-.3-2.27a.1.1,0,0,1,.2,0c.1.77.19,1.51.28,2.27a.08.08,0,0,1-.07.1h0Zm-.6-4.54a.1.1,0,0,1-.1-.08h0c-.11-.77-.23-1.55-.35-2.26a.1.1,0,0,1,.08-.11h0a.09.09,0,0,1,.11.07h0c.12.77.24,1.5.35,2.26a.1.1,0,0,1-.08.11h0Zm-.73-4.53a.09.09,0,0,1-.09-.08c-.13-.77-.27-1.55-.41-2.25a.09.09,0,0,1,.08-.11.1.1,0,0,1,.11.07c.14.78.27,1.51.41,2.26a.1.1,0,0,1-.08.11h0Zm-.85-4.5a.09.09,0,0,1-.09-.08c-.16-.77-.32-1.5-.48-2.23a.11.11,0,0,1,.07-.12.09.09,0,0,1,.11.07c.17.74.33,1.49.48,2.24a.09.09,0,0,1-.06.12h0Zm-1-4.47a.08.08,0,0,1-.09-.07c-.19-.78-.38-1.5-.57-2.21a.11.11,0,0,1,.06-.13.08.08,0,0,1,.11.05v0c.19.72.39,1.47.57,2.22a.11.11,0,0,1-.07.12Zm-1.19-4.43a.08.08,0,0,1-.09-.07c-.22-.73-.44-1.47-.67-2.18a.09.09,0,0,1,.06-.12h0a.1.1,0,0,1,.12,0h0c.23.71.45,1.45.68,2.19a.1.1,0,0,1-.07.12Zm-1.41-4.35a.1.1,0,0,1-.09-.07c-.26-.73-.53-1.45-.78-2.14a.08.08,0,0,1,0-.11h0a.11.11,0,0,1,.12,0c.27.69.54,1.42.78,2.15a.11.11,0,0,1-.07.13Zm-45.42-3.11h0a.09.09,0,0,1,0-.13c.38-.61.82-1.26,1.28-1.91a.1.1,0,0,1,.13,0h0a.1.1,0,0,1,0,.13h0c-.46.65-.89,1.28-1.28,1.9,0,0-.05,0-.08,0Zm43.73-1.18a.09.09,0,0,1-.08-.05c-.32-.71-.65-1.41-1-2.07a.09.09,0,0,1,0-.12h0a.11.11,0,0,1,.13,0c.33.67.66,1.37,1,2.08a.1.1,0,0,1-.05.13Zm-41-2.53h0a.1.1,0,0,1,0-.14c.47-.59,1-1.19,1.47-1.76a.12.12,0,0,1,.14,0,.1.1,0,0,1,0,.14h0c-.5.56-1,1.15-1.47,1.75A.1.1,0,0,1,153.39,190.56Zm39-1.55a.11.11,0,0,1-.09,0c-.38-.68-.77-1.33-1.18-2a.09.09,0,0,1,0-.13.11.11,0,0,1,.13,0c.4.62.77,1.28,1.19,2a.09.09,0,0,1,0,.13Zm-36-1.89h-.06a.09.09,0,0,1,0-.12h0c.54-.55,1.09-1.09,1.65-1.61a.1.1,0,0,1,.13,0h0a.1.1,0,0,1,0,.14c-.55.52-1.1,1-1.64,1.59a.07.07,0,0,1-.1,0h0Zm33.5-1.94a.08.08,0,0,1-.07,0c-.48-.62-1-1.21-1.46-1.74a.1.1,0,0,1,0-.14.09.09,0,0,1,.13,0h0c.5.54,1,1.13,1.47,1.76a.09.09,0,0,1,0,.13h0a.08.08,0,0,1-.1,0ZM159.79,184a.07.07,0,0,1-.07-.13h0c.6-.5,1.21-1,1.82-1.41a.09.09,0,0,1,.13,0h0a.1.1,0,0,1,0,.13h0c-.61.44-1.22.91-1.81,1.4a.08.08,0,0,1-.11,0Zm27-2.19a.06.06,0,0,1-.06,0,19.93,19.93,0,0,0-1.79-1.39.09.09,0,0,1,0-.13h0a.09.09,0,0,1,.13,0,17.45,17.45,0,0,1,1.8,1.41.09.09,0,0,1,0,.13h0a.09.09,0,0,1-.12,0h0Zm-23.36-.49a.11.11,0,0,1-.08,0,.12.12,0,0,1,0-.14c.66-.41,1.33-.77,2-1.15a.11.11,0,0,1,.15,0,.1.1,0,0,1,0,.14s0,0-.05,0c-.66.35-1.33.73-2,1.14C163.49,181.33,163.48,181.33,163.47,181.33Zm19.57-2h0l-.38-.17a18.33,18.33,0,0,0-1.73-.69.08.08,0,0,1-.06-.11h0a.09.09,0,0,1,.11-.07h0a18.69,18.69,0,0,1,1.75.69l.38.17a.12.12,0,0,1,0,.14.09.09,0,0,1-.1,0Zm-15.52-.09a.09.09,0,0,1-.09,0,.11.11,0,0,1,0-.13c.71-.29,1.43-.55,2.16-.77a.08.08,0,0,1,.11,0v0a.11.11,0,0,1-.06.12h0c-.71.22-1.43.48-2.15.77Zm4.37-1.35a.1.1,0,0,1-.1-.08.09.09,0,0,1,.08-.1,19.23,19.23,0,0,1,2.28-.31.11.11,0,0,1,.1.09h0a.11.11,0,0,1-.09.1,16.88,16.88,0,0,0-2.25.29Zm6.82,0h0a17.25,17.25,0,0,0-2.26-.29.09.09,0,0,1-.09-.1h0a.09.09,0,0,1,.1-.09,17.57,17.57,0,0,1,2.28.3.08.08,0,0,1,.08.1h0a.11.11,0,0,1-.12.07h0Z"/><path class="cls-6" d="M200.49,269.2h0a.1.1,0,0,1-.09-.1h0c0-.78.06-1.51.09-2.29a.08.08,0,0,1,.08-.09h0a.09.09,0,0,1,.09.09h0c0,.77,0,1.55-.08,2.29a.09.09,0,0,1-.09.09Zm.15-4.58h0a.09.09,0,0,1-.09-.1c0-.77,0-1.51,0-2.29,0-.05.05-.08.11-.09a.11.11,0,0,1,.09.1c0,.78,0,1.55-.06,2.29a.1.1,0,0,1-.1.09Zm.1-4.58h0a.09.09,0,0,1-.09-.08h0v-2.29a.11.11,0,0,1,.09-.1h0a.1.1,0,0,1,.1.09V260a.1.1,0,0,1-.1.09Zm0-4.58h0a.09.09,0,0,1-.09-.09v-2.29a.11.11,0,0,1,.09-.1h0a.1.1,0,0,1,.1.1h0v2.29a.09.09,0,0,1-.09.09Zm0-4.57a.11.11,0,0,1-.1-.1h0V248.5a.1.1,0,0,1,.1-.1h0a.1.1,0,0,1,.09.1v2.29a.11.11,0,0,1-.09.1Zm-.07-4.59a.11.11,0,0,1-.1-.09c0-.78,0-1.55-.06-2.29a.1.1,0,0,1,.07-.12.09.09,0,0,1,.12.07,0,0,0,0,1,0,0c0,.78,0,1.55.06,2.29a.1.1,0,0,1-.09.1h0Zm-.14-4.58a.11.11,0,0,1-.1-.09c0-.77-.05-1.55-.09-2.32a.09.09,0,0,1,.08-.1h0a.08.08,0,0,1,.1.08h0l.1,2.33a.09.09,0,0,1-.1.09Zm-.21-4.58a.09.09,0,0,1-.09-.09c0-.78-.08-1.55-.13-2.29a.09.09,0,0,1,.08-.1h0a.11.11,0,0,1,.1.09c0,.77.08,1.55.13,2.32a.1.1,0,0,1-.09.1h0Zm-.27-4.58a.11.11,0,0,1-.1-.09l-.16-2.28a.08.08,0,0,1,.1-.07.1.1,0,0,1,.1.09c.06.77.12,1.55.17,2.28a.09.09,0,0,1-.08.1h0Zm-.36-4.56s-.09,0-.09-.09l-.21-2.28a.09.09,0,0,1,.08-.1h0a.08.08,0,0,1,.1.07v0c.08.77.15,1.55.22,2.27a.12.12,0,0,1-.09.11Zm-.44-4.56a.08.08,0,0,1-.1-.08c-.08-.76-.17-1.52-.26-2.28a.09.09,0,0,1,.08-.1.08.08,0,0,1,.1.07h0c.09.78.17,1.52.26,2.28a.09.09,0,0,1-.08.1Zm-.55-4.55a.09.09,0,0,1-.1-.08h0c-.1-.77-.21-1.55-.32-2.27a.11.11,0,0,1,.08-.11h0a.1.1,0,0,1,.11.08h0c.11.77.22,1.5.32,2.26a.1.1,0,0,1-.08.11Zm-.67-4.53a.09.09,0,0,1-.09-.08c-.13-.78-.26-1.55-.39-2.26a.09.09,0,0,1,.07-.11h0a.09.09,0,0,1,.11.08h0c.14.77.27,1.5.39,2.26a.08.08,0,0,1-.07.1h0Zm-.78-4.51a.09.09,0,0,1-.09-.08c-.15-.78-.3-1.55-.46-2.24a.09.09,0,0,1,.06-.11h0a.1.1,0,0,1,.12.06h0c.15.73.31,1.49.46,2.25a.1.1,0,0,1-.07.11Zm-1-4.48a.09.09,0,0,1-.09-.08c-.19-.77-.37-1.5-.56-2.21a.1.1,0,0,1,.07-.12.11.11,0,0,1,.12.07c.18.71.37,1.47.55,2.23a.08.08,0,0,1-.07.1h0Zm-1.17-4.43a.11.11,0,0,1-.09-.07c-.21-.77-.44-1.48-.67-2.18a.1.1,0,0,1,.06-.13.1.1,0,0,1,.12.05h0c.22.72.45,1.45.66,2.2a.09.09,0,0,1-.06.12h0Zm-1.44-4.36a.09.09,0,0,1-.08-.07c-.26-.72-.54-1.45-.82-2.13a.1.1,0,0,1,.05-.12.1.1,0,0,1,.13.05c.27.68.55,1.41.82,2.14a.12.12,0,0,1-.06.13Zm-42.37-1.19h0a.09.09,0,0,1,0-.13c.39-.62.83-1.25,1.31-1.89a.09.09,0,0,1,.15.11h0c-.47.64-.9,1.27-1.31,1.88a.08.08,0,0,1-.11,0Zm40.65-3a.11.11,0,0,1-.09-.05c-.33-.72-.67-1.41-1-2a.1.1,0,0,1,0-.13.08.08,0,0,1,.12,0c.35.65.69,1.35,1,2a.1.1,0,0,1-.05.13Zm-37.93-.64a.09.09,0,0,1-.07,0,.1.1,0,0,1,0-.13h0c.48-.59,1-1.18,1.49-1.76a.1.1,0,0,1,.13,0h0a.09.09,0,0,1,0,.13h0c-.51.57-1,1.16-1.49,1.74a.09.09,0,0,1-.09,0Zm35.78-3.4a.08.08,0,0,1-.08-.05c-.41-.66-.84-1.29-1.27-1.89a.09.09,0,0,1,0-.13.09.09,0,0,1,.13,0,0,0,0,0,1,0,0c.45.6.87,1.24,1.29,1.9a.1.1,0,0,1,0,.13A.06.06,0,0,1,189.85,188.3Zm-32.74,0h-.06a.1.1,0,0,1,0-.13h0c.54-.55,1.1-1.09,1.65-1.6a.1.1,0,0,1,.14,0h0a.1.1,0,0,1,0,.13h0c-.55.51-1.11,1.05-1.65,1.59a.08.08,0,0,1-.09,0Zm3.39-3.1a.07.07,0,0,1-.07-.13h0c.6-.5,1.21-1,1.82-1.4a.1.1,0,0,1,.14.14c-.61.43-1.22.9-1.82,1.39a.1.1,0,0,1-.09,0Zm26.63-.56a.1.1,0,0,1-.07,0,22.25,22.25,0,0,0-1.62-1.6.09.09,0,0,1,0-.13h0a.1.1,0,0,1,.14,0,22.52,22.52,0,0,1,1.63,1.61.11.11,0,0,1,0,.15l-.05,0Zm-22.88-2.1a.12.12,0,0,1-.09,0,.11.11,0,0,1,0-.13c.67-.41,1.35-.78,2-1.12a.09.09,0,0,1,.12,0h0a.11.11,0,0,1,0,.13c-.66.33-1.33.71-2,1.11Zm19.39-.89h0a13,13,0,0,0-1.71-.94l-.29-.14a.09.09,0,0,1,0-.12h0a.09.09,0,0,1,.12,0h0l.29.13a16.27,16.27,0,0,1,1.74.95.1.1,0,0,1,0,.13Zm-15.34-1.18a.08.08,0,0,1-.06-.11s0-.06.06-.06a18.59,18.59,0,0,1,2.18-.73.09.09,0,0,1,.11.07.09.09,0,0,1-.06.12h0c-.74.2-1.46.44-2.17.71Zm11.21-.69h0a18.07,18.07,0,0,0-2.21-.47.1.1,0,0,1-.09-.1h0a.11.11,0,0,1,.11-.08h0a15.84,15.84,0,0,1,2.25.49.09.09,0,0,1,.07.11.11.11,0,0,1-.13.07Zm-6.8-.47a.11.11,0,0,1-.09-.08.09.09,0,0,1,.07-.11h0A20.11,20.11,0,0,1,175,179h0a.09.09,0,0,1,.1.1h0a.1.1,0,0,1-.08.1h0a15.61,15.61,0,0,0-2.26.16Z"/><path class="cls-6" d="M197,272.53h0a.11.11,0,0,1-.09-.1c.05-.61.09-1.23.13-1.87a.11.11,0,0,1,.11-.08.1.1,0,0,1,.09.1h0c-.05.64-.09,1.26-.14,1.86A.1.1,0,0,1,197,272.53Zm.28-4.14h0a.1.1,0,0,1-.09-.1h0c.05-.77.09-1.5.13-2.28a.1.1,0,0,1,.1-.09h0a.09.09,0,0,1,.09.09h0c0,.78-.08,1.55-.13,2.28A.1.1,0,0,1,197.26,268.39Zm.24-4.58h0a.08.08,0,0,1-.08-.09h0c0-.78.06-1.56.09-2.29a.1.1,0,0,1,.09-.1h0a.11.11,0,0,1,.1.1h0c0,.77-.07,1.55-.1,2.28A.11.11,0,0,1,197.5,263.81Zm.18-4.58h0a.09.09,0,0,1-.09-.09c0-.78,0-1.55.06-2.29a.11.11,0,0,1,.1-.09.09.09,0,0,1,.09.09c0,.78,0,1.55-.07,2.33A.07.07,0,0,1,197.68,259.23Zm.12-4.57a.11.11,0,0,1-.1-.1c0-.77,0-1.55,0-2.32a.13.13,0,0,1,.1-.1h0a.11.11,0,0,1,.1.1h0c0,.78,0,1.56,0,2.29a.09.09,0,0,1-.06.12Zm.06-4.58h0a.09.09,0,0,1-.09-.09h0v-2.29a.09.09,0,0,1,.18,0V250a.11.11,0,0,1-.09.06Zm0-4.58a.1.1,0,0,1-.09-.1v-2.29a.11.11,0,0,1,.09-.1h0a.11.11,0,0,1,.09.1v2.29A.1.1,0,0,1,197.86,245.5Zm-.07-4.58a.09.09,0,0,1-.09-.09c0-.78,0-1.55-.07-2.29a.1.1,0,0,1,.09-.1h0a.09.09,0,0,1,.09.09c0,.78,0,1.55.06,2.29a.1.1,0,0,1-.1.1h0Zm-.13-4.58a.12.12,0,0,1-.1-.1c0-.77-.07-1.55-.1-2.32a.11.11,0,0,1,.1-.11.1.1,0,0,1,.09.1c0,.77.07,1.55.1,2.32A.11.11,0,0,1,197.66,236.34Zm-.22-4.59a.09.09,0,0,1-.09-.09c0-.78-.09-1.55-.14-2.33a.1.1,0,0,1,.19-.05,0,0,0,0,1,0,.05c0,.78.09,1.55.13,2.29a.08.08,0,0,1-.08.1h0Zm-.29-4.57a.09.09,0,0,1-.1-.09c-.05-.78-.11-1.55-.18-2.27a.1.1,0,0,1,.07-.1h0a.08.08,0,0,1,.1.08h0c.06.78.12,1.51.18,2.27a.09.09,0,0,1-.08.11Zm-.39-4.56a.11.11,0,0,1-.1-.08c-.07-.76-.15-1.52-.23-2.28a.08.08,0,0,1,.07-.1h0a.07.07,0,0,1,.09.05v0c.08.78.16,1.55.23,2.33a.09.09,0,0,1-.08.1h0Zm-.49-4.55a.11.11,0,0,1-.1-.09c-.09-.77-.19-1.55-.29-2.27a.09.09,0,0,1,.09-.09.1.1,0,0,1,.1.09h0c.1.78.2,1.55.29,2.27a.09.09,0,0,1-.07.11h0Zm-.62-4.55a.08.08,0,0,1-.09-.07c-.12-.78-.25-1.55-.36-2.27a.09.09,0,0,1,.07-.11h0a.1.1,0,0,1,.1.08c.13.74.25,1.5.36,2.27a.08.08,0,0,1-.07.1h0Zm-.78-4.51a.09.09,0,0,1-.09-.08c-.14-.77-.29-1.51-.44-2.25a.1.1,0,0,1,.07-.11.09.09,0,0,1,.11.07h0c.16.74.31,1.5.45,2.25a.11.11,0,0,1-.07.12h0Zm-.91-4.49a.1.1,0,0,1-.1-.08c-.17-.77-.36-1.5-.55-2.22a.09.09,0,0,1,.07-.11.08.08,0,0,1,.11,0v0c.19.72.37,1.47.55,2.23a.09.09,0,0,1-.07.11h0Zm-1.16-4.44a.1.1,0,0,1-.09-.07c-.22-.75-.44-1.48-.68-2.19a.1.1,0,0,1,.07-.11h0a.09.09,0,0,1,.12.06c.22.7.46,1.44.67,2.19a.08.08,0,0,1,0,.11h0ZM152,196.47h-.05a.09.09,0,0,1,0-.13c.42-.62.87-1.25,1.35-1.87a.1.1,0,0,1,.13,0h0a.1.1,0,0,1,0,.14h0c-.47.62-.92,1.24-1.34,1.85a.15.15,0,0,1-.09,0Zm39.4-.74a.09.09,0,0,1-.09-.06c-.27-.74-.56-1.45-.84-2.13a.08.08,0,0,1,0-.12h0a.09.09,0,0,1,.12.05h0c.29.68.57,1.39.85,2.13a.1.1,0,0,1-.05.12Zm-36.63-2.92h-.06a.1.1,0,0,1,0-.14c.49-.58,1-1.17,1.5-1.73a.09.09,0,0,1,.13,0h0a.09.09,0,0,1,0,.12h0c-.5.56-1,1.14-1.49,1.73a.08.08,0,0,1-.08,0Zm34.83-1.29a.11.11,0,0,1-.09-.05c-.35-.7-.71-1.38-1.08-2a.09.09,0,0,1,.13-.13,22.94,22.94,0,0,1,1.09,2,.1.1,0,0,1,0,.12h0Zm-31.76-2.1h-.06a.12.12,0,0,1,0-.14c.55-.55,1.11-1.08,1.66-1.55a.1.1,0,0,1,.14,0,.09.09,0,0,1,0,.13h0c-.55.5-1.11,1-1.65,1.55a.1.1,0,0,1-.09,0Zm29.43-1.83a.1.1,0,0,1-.08-.05,20.41,20.41,0,0,0-1.41-1.78.1.1,0,0,1,0-.14h0a.12.12,0,0,1,.14,0c.48.55,1,1.16,1.42,1.8a.1.1,0,0,1,0,.14h0a.06.06,0,0,1-.07,0Zm-26-1.24a.2.2,0,0,1-.08,0,.1.1,0,0,1,0-.13h0c.61-.48,1.22-.95,1.83-1.38a.1.1,0,0,1,.13,0h0a.1.1,0,0,1,0,.14h0c-.6.42-1.21.89-1.82,1.37a.06.06,0,0,1-.06,0Zm23-2.16h-.06a14.1,14.1,0,0,0-1.84-1.33.11.11,0,0,1,0-.13.09.09,0,0,1,.13,0h0a12.9,12.9,0,0,1,1.86,1.34.09.09,0,0,1,0,.13h0a.08.08,0,0,1-.09,0ZM165,183.72s-.07,0-.08,0a.09.09,0,0,1,0-.13h0a20,20,0,0,1,2-1.08.09.09,0,0,1,.12,0h0a.08.08,0,0,1,0,.12h0c-.67.32-1.34.67-2,1.07Zm15.34-1.86h0a16.49,16.49,0,0,0-2.17-.67.09.09,0,0,1-.07-.11.1.1,0,0,1,.11-.08,18.65,18.65,0,0,1,2.2.68.11.11,0,0,1,0,.13.09.09,0,0,1-.08.06Zm-11.2-.08a.1.1,0,0,1-.09-.07.11.11,0,0,1,.06-.12,18.55,18.55,0,0,1,2.21-.62.09.09,0,0,1,.11.06h0a.11.11,0,0,1-.07.12,16.14,16.14,0,0,0-2.19.62Zm6.75-.94h0a14.34,14.34,0,0,0-2.27,0c-.05,0-.1,0-.11-.09a.11.11,0,0,1,.09-.1h0a18,18,0,0,1,2.32,0,.13.13,0,0,1,.1.1.11.11,0,0,1-.11.1Z"/><path class="cls-6" d="M193.72,272.06h0a.08.08,0,0,1-.08-.08v0q.11-1.11.21-2.28a.1.1,0,0,1,.1-.09h0a.08.08,0,0,1,.08.1h0c-.07.77-.14,1.55-.21,2.28a.09.09,0,0,1-.09.08Zm.41-4.56h0a.1.1,0,0,1-.09-.1h0c.06-.78.12-1.5.18-2.28a.11.11,0,0,1,.1-.09.1.1,0,0,1,.09.11c-.06.77-.12,1.55-.17,2.28a.11.11,0,0,1-.1.08Zm.33-4.57h0a.09.09,0,0,1-.09-.08s0,0,0,0c0-.77.09-1.51.13-2.28a.11.11,0,0,1,.1-.09.1.1,0,0,1,.09.1c0,.77-.09,1.55-.14,2.29a.08.08,0,0,1-.06.08Zm.26-4.57h0a.1.1,0,0,1-.1-.09h0c0-.77.08-1.55.11-2.32,0-.06,0-.09.1-.1a.1.1,0,0,1,.09.1h0c0,.78-.06,1.56-.1,2.29a.1.1,0,0,1-.07.13h0Zm.2-4.57h0a.09.09,0,0,1-.09-.09h0c0-.78,0-1.55.07-2.29a.11.11,0,0,1,.1-.09h0a.08.08,0,0,1,.08.1h0c0,.77,0,1.55-.07,2.28a.1.1,0,0,1-.08.1Zm.13-4.58h0a.1.1,0,0,1-.09-.1c0-.77,0-1.55,0-2.29a.1.1,0,0,1,.1-.09h0a.09.09,0,0,1,.09.09v2.33a.09.09,0,0,1-.12.06Zm.06-4.58h0a.09.09,0,0,1-.09-.1v-2.28a.09.09,0,0,1,.09-.1h0a.09.09,0,0,1,.09.1v2.28a.1.1,0,0,1-.08.1Zm0-4.58a.11.11,0,0,1-.1-.09v-2.33a.1.1,0,0,1,.09-.1h0a.11.11,0,0,1,.1.09V240A.1.1,0,0,1,195.11,240.05Zm-.07-4.59a.09.09,0,0,1-.1-.09c0-.78,0-1.56-.06-2.29a.09.09,0,0,1,.09-.1h0a.1.1,0,0,1,.1.09c0,.78,0,1.55.07,2.29a.11.11,0,0,1-.09.1Zm-.15-4.58a.09.09,0,0,1-.09-.09c0-.78-.07-1.55-.11-2.33a.11.11,0,0,1,.07-.1h0a.1.1,0,0,1,.1.09h0c0,.77.08,1.55.11,2.32a.1.1,0,0,1-.09.1Zm-.23-4.57a.11.11,0,0,1-.1-.09c0-.77-.09-1.55-.15-2.29a.11.11,0,0,1,.09-.1.1.1,0,0,1,.1.09h0c.06.77.11,1.55.16,2.28a.11.11,0,0,1-.09.1Zm-.33-4.57a.09.09,0,0,1-.09-.09c-.07-.77-.14-1.55-.21-2.28a.1.1,0,1,1,.19,0c.07.77.14,1.55.2,2.28a.09.09,0,0,1-.07.1h0Zm-.44-4.56a.11.11,0,0,1-.1-.09c-.08-.77-.17-1.55-.26-2.27a.09.09,0,0,1,.09-.09.1.1,0,0,1,.1.09h0c.09.78.18,1.51.26,2.28a.09.09,0,0,1-.08.1Zm-.57-4.55a.09.09,0,0,1-.09-.08c-.11-.77-.23-1.55-.34-2.26a.09.09,0,0,1,.07-.11h0a.09.09,0,0,1,.11.08h0c.13.77.24,1.5.34,2.26a.09.09,0,0,1-.07.11h0Zm-.72-4.52a.08.08,0,0,1-.09-.08c-.14-.77-.28-1.55-.44-2.25a.1.1,0,0,1,.07-.12.1.1,0,0,1,.13.07v.05c.14.73.28,1.49.42,2.25a.1.1,0,0,1-.07.12Zm-.92-4.49a.12.12,0,0,1-.09-.08c-.17-.77-.36-1.5-.54-2.22a.09.09,0,0,1,.07-.11.08.08,0,0,1,.11,0v0c.19.72.38,1.46.55,2.22a.11.11,0,0,1-.07.12h0Zm-1.15-4.44a.09.09,0,0,1-.09-.06c-.22-.78-.45-1.48-.69-2.18a.09.09,0,0,1,.06-.12.09.09,0,0,1,.12.06c.23.7.47,1.43.69,2.19a.08.08,0,0,1-.06.11h0Zm-37.91-1.64h-.06a.1.1,0,0,1,0-.13c.47-.64.93-1.24,1.39-1.83a.09.09,0,0,1,.13,0h0a.09.09,0,0,1,0,.13h0c-.46.58-.91,1.17-1.38,1.82A.11.11,0,0,1,152.62,197.54Zm36.45-2.72a.09.09,0,0,1-.09-.06q-.43-1.09-.9-2.1a.09.09,0,0,1,.08-.11.1.1,0,0,1,.1,0c.31.67.61,1.38.9,2.11a.12.12,0,0,1-.06.13Zm-33.64-.89h-.06a.12.12,0,0,1,0-.14c.5-.59,1-1.17,1.51-1.72a.09.09,0,0,1,.13,0s.05.1,0,.13h0c-.5.55-1,1.14-1.5,1.73a.12.12,0,0,1-.08,0Zm31.7-3.26a.09.09,0,0,1-.08,0,21.33,21.33,0,0,0-1.2-1.94.1.1,0,0,1,0-.13h0a.1.1,0,0,1,.14,0,21,21,0,0,1,1.2,1.95.08.08,0,0,1,0,.12,0,0,0,0,1,0,.07Zm-28.6-.11h-.07a.1.1,0,0,1,0-.14c.55-.55,1.11-1.08,1.66-1.55a.1.1,0,0,1,.14,0,.1.1,0,0,1,0,.13h0c-.56.5-1.11,1-1.66,1.55Zm3.4-3.11a.06.06,0,0,1-.08,0,.12.12,0,0,1,0-.14c.62-.48,1.24-.94,1.85-1.36a.09.09,0,0,1,.13,0,.11.11,0,0,1,0,.14h0c-.61.41-1.23.87-1.84,1.36Zm22.61-.55h-.07a15,15,0,0,0-1.63-1.56.1.1,0,0,1,0-.13h0a.12.12,0,0,1,.14,0,14.75,14.75,0,0,1,1.65,1.61.1.1,0,0,1,0,.13h0a.08.08,0,0,1-.09,0Zm-18.83-2a.1.1,0,0,1-.08,0,.09.09,0,0,1,0-.13h0a22,22,0,0,1,2.06-1,.09.09,0,1,1,.07.17h0c-.67.3-1.36.64-2,1ZM181,184h0l-.45-.22a16.51,16.51,0,0,0-1.64-.66.09.09,0,0,1-.07-.11h0a.09.09,0,0,1,.12-.06h0a16.69,16.69,0,0,1,1.65.66l.47.23a.12.12,0,0,1,0,.14.09.09,0,0,1-.08.09h0Zm-11.11-1a.09.09,0,0,1-.09-.1.09.09,0,0,1,.09-.09h0a15.87,15.87,0,0,1,2.25-.5.08.08,0,0,1,.1.07.09.09,0,0,1-.07.11h0a17,17,0,0,0-2.22.51Zm6.79-.48h0a14.26,14.26,0,0,0-2.26-.19.1.1,0,0,1-.1-.09h0a.1.1,0,0,1,.1-.09h0a13.89,13.89,0,0,1,2.32.2.09.09,0,0,1,.08.1h0a.1.1,0,0,1,0,.15.11.11,0,0,1-.15,0h0Z"/><path class="cls-6" d="M190.13,275.15h0a.08.08,0,0,1-.08-.1h0c.08-.57.17-1.16.25-1.78a.08.08,0,0,1,.1-.07h0a.08.08,0,0,1,.08.1h0c-.08.61-.16,1.2-.24,1.76A.11.11,0,0,1,190.13,275.15Zm.54-4h0a.1.1,0,0,1-.09-.1h0q.13-1.11.27-2.28a.1.1,0,0,1,.1-.09.09.09,0,0,1,.08.1h0c-.08.78-.16,1.54-.25,2.28A.1.1,0,0,1,190.67,271.1Zm.5-4.55h0a.1.1,0,0,1-.09-.1h0c.08-.78.15-1.51.22-2.28a.09.09,0,0,1,.1-.09h0a.09.09,0,0,1,.08.08v0c-.07.78-.14,1.55-.21,2.28a.09.09,0,0,1-.06.11h0Zm.41-4.56h0a.1.1,0,0,1-.09-.1h0c.06-.78.12-1.52.18-2.29a.1.1,0,0,1,.19,0h0l-.18,2.33A.09.09,0,0,1,191.58,262Zm.34-4.57h0a.09.09,0,0,1-.09-.09h0c0-.78.1-1.52.14-2.29a.11.11,0,0,1,.1-.09h0a.1.1,0,0,1,.1.1h0c0,.78-.1,1.56-.15,2.29a.11.11,0,0,1-.1.09Zm.27-4.57h0a.11.11,0,0,1-.09-.1l.11-2.29a.09.09,0,0,1,.1-.09.09.09,0,0,1,.09.09h0c0,.77-.07,1.55-.11,2.29a.1.1,0,0,1-.11.09h0Zm.2-4.58h0a.08.08,0,0,1-.08-.1h0c0-.77.05-1.55.07-2.29a.09.09,0,0,1,.1-.09.09.09,0,0,1,.09.09h0c0,.78,0,1.55-.08,2.33a.09.09,0,0,1-.1.05Zm.13-4.58h0a.09.09,0,0,1-.09-.09l0-2.29a.08.08,0,0,1,.08-.1h0a.09.09,0,0,1,.09.1c0,.77,0,1.55,0,2.29a.09.09,0,0,1-.09.09Zm.07-4.58h0a.1.1,0,0,1-.09-.1v-2.29a.09.09,0,0,1,.09-.09h0a.1.1,0,0,1,.1.09v2.33a.1.1,0,0,1-.1.06Zm0-4.58a.09.09,0,0,1-.09-.09v-2.29a.08.08,0,0,1,.08-.1h0a.09.09,0,0,1,.1.09v2.33a.09.09,0,0,1-.09.09Zm-.08-4.58a.11.11,0,0,1-.1-.09l-.07-2.29a.1.1,0,0,1,.09-.1h0a.09.09,0,0,1,.1.09h0c0,.78.05,1.55.08,2.29a.1.1,0,0,1-.1.1Zm-.17-4.57a.1.1,0,0,1-.1-.1c0-.77-.07-1.55-.12-2.32a.09.09,0,0,1,.09-.1h0a.09.09,0,0,1,.1.09c0,.77.09,1.55.12,2.29a.1.1,0,0,1-.09.1h0Zm-.28-4.58a.11.11,0,0,1-.09-.09c-.05-.77-.11-1.55-.18-2.28a.09.09,0,0,1,.08-.1h0a.08.08,0,0,1,.1.08h0l.18,2.33a.09.09,0,0,1-.07.1h0Zm-.38-4.56a.11.11,0,0,1-.1-.09c-.07-.77-.16-1.55-.24-2.28a.1.1,0,0,1,.08-.11.12.12,0,0,1,.11.09c.08.78.16,1.5.24,2.28a.1.1,0,0,1-.08.11Zm-.53-4.55c-.05,0-.09,0-.09-.09-.1-.78-.21-1.55-.32-2.26a.09.09,0,0,1,.07-.11h0a.09.09,0,0,1,.1.07c.11.78.22,1.51.33,2.28a.1.1,0,0,1-.08.11Zm-.69-4.53a.09.09,0,0,1-.09-.08c-.14-.78-.28-1.55-.42-2.25a.1.1,0,0,1,.07-.12.09.09,0,0,1,.11.08h0c.15.73.29,1.49.42,2.25a.08.08,0,0,1-.06.11h0Zm-.9-4.49a.11.11,0,0,1-.09-.08c-.17-.78-.36-1.51-.55-2.22a.11.11,0,0,1,.07-.12.09.09,0,0,1,.11.07h0c.2.71.37,1.46.55,2.23a.07.07,0,0,1-.06.1h0Zm-36.22-4.06-.08-.05-.07-.07c.42-.53.89-1.14,1.42-1.78a.09.09,0,0,1,.15.11Zm35-.37a.1.1,0,0,1-.09-.07c-.24-.77-.48-1.48-.72-2.17a.1.1,0,0,1,.05-.12.09.09,0,0,1,.12.05h0c.25.69.5,1.42.73,2.17a.1.1,0,0,1-.06.13Zm-32.24-3.15h-.07a.1.1,0,0,1,0-.13h0c.52-.59,1-1.18,1.56-1.72a.09.09,0,0,1,.13,0,.11.11,0,0,1,0,.14c-.5.54-1,1.12-1.52,1.72a.09.09,0,0,1-.12,0Zm30.67-1.15a.1.1,0,0,1-.08-.06c-.32-.72-.65-1.42-1-2.06a.11.11,0,0,1,0-.13.1.1,0,0,1,.13,0c.35.64.67,1.34,1,2.07a.1.1,0,0,1-.05.13Zm-27.57-2.22h-.07a.08.08,0,0,1,0-.12h0c.56-.56,1.12-1.09,1.67-1.55a.09.09,0,0,1,.13,0h0a.08.08,0,0,1,0,.12h0c-.54.49-1.1,1-1.65,1.55h-.08Zm25.43-1.82a.13.13,0,0,1-.09,0,17.29,17.29,0,0,0-1.38-1.81.09.09,0,0,1,0-.13h0a.1.1,0,0,1,.14,0,20.46,20.46,0,0,1,1.4,1.82.1.1,0,0,1,0,.13h0a.07.07,0,0,1-.08,0h0Zm-22-1.24a.06.06,0,0,1-.08,0,.11.11,0,0,1,0-.13c.64-.49,1.26-.94,1.87-1.35a.1.1,0,0,1,.13.06.12.12,0,0,1,0,.1c-.61.4-1.23.85-1.85,1.34Zm19-2.14h-.07a9.47,9.47,0,0,0-1.72-1.06l-.21-.09a.1.1,0,0,1,0-.13.09.09,0,0,1,.12-.05h0l.2.09a9.51,9.51,0,0,1,1.77,1.1.09.09,0,0,1,0,.13h0a.07.07,0,0,1-.06,0Zm-15.15-.38a.1.1,0,0,1-.05-.18,18,18,0,0,1,2.09-1,.09.09,0,0,1,.12,0h0a.11.11,0,0,1,0,.13,18.41,18.41,0,0,0-2.06,1Zm11-1.56h0a13.06,13.06,0,0,0-2.23-.41.09.09,0,0,1-.09-.09h0a.1.1,0,0,1,.1-.09h0a12.51,12.51,0,0,1,2.26.43.08.08,0,0,1,.08.09,0,0,0,0,0,0,0,.12.12,0,0,1-.12,0Zm-6.79-.08a.11.11,0,0,1-.09-.08.09.09,0,0,1,.07-.11h0A14.62,14.62,0,0,1,173,184a.1.1,0,0,1,.1.08.09.09,0,0,1-.09.1h0a17.12,17.12,0,0,0-2.24.36Z"/><path class="cls-6" d="M187.05,274.61h0a.11.11,0,0,1-.07-.12c.12-.71.24-1.47.37-2.26a.1.1,0,0,1,.1-.08h0a.09.09,0,0,1,.08.1h0c-.13.78-.25,1.55-.37,2.26a.11.11,0,0,1-.11.09Zm.69-4.53h0a.09.09,0,0,1-.08-.1h0c.1-.74.2-1.49.3-2.27a.09.09,0,0,1,.11-.08h0a.11.11,0,0,1,.09.11c-.11.77-.21,1.55-.31,2.26A.1.1,0,0,1,187.74,270.08Zm.59-4.55h0a.09.09,0,0,1-.09-.1h0c.09-.73.17-1.49.26-2.27a.08.08,0,0,1,.08-.09h0a.09.09,0,0,1,.08.1h0c-.08.78-.17,1.55-.25,2.28a.12.12,0,0,1-.11.09h0Zm.48-4.55h0a.1.1,0,0,1-.08-.1h0c.07-.78.15-1.55.22-2.28a.1.1,0,0,1,.09-.1.09.09,0,0,1,.09.1h0c-.07.77-.14,1.55-.21,2.28a.11.11,0,0,1-.09.1Zm.42-4.56h0a.1.1,0,0,1-.09-.1h0c.06-.78.12-1.51.18-2.28a.09.09,0,0,1,.09-.09.11.11,0,0,1,.1.09c-.06.77-.12,1.55-.18,2.28a.1.1,0,0,1-.08.11Zm.34-4.57h0a.11.11,0,0,1-.09-.1h0l.14-2.29a.11.11,0,0,1,.1-.09.11.11,0,0,1,.1.1h0c0,.77-.1,1.55-.15,2.28a.09.09,0,0,1-.1.07Zm.27-4.58h0a.1.1,0,0,1-.09-.1h0c0-.77.08-1.55.11-2.29a.11.11,0,0,1,.1-.08h0a.09.09,0,0,1,.09.09h0l-.12,2.29a.09.09,0,0,1-.08.08h0Zm.2-4.57h0a.1.1,0,0,1-.09-.1h0c0-.78.05-1.56.07-2.29a.11.11,0,0,1,.1-.1.1.1,0,0,1,.09.1h0l-.07,2.33a.11.11,0,0,1-.1.06Zm.13-4.59h0a.09.09,0,0,1-.09-.09c0-.78,0-1.55,0-2.33a.09.09,0,0,1,.09-.09h0a.09.09,0,0,1,.1.1h0c0,.78,0,1.55,0,2.29a.09.09,0,0,1-.05.12Zm.06-4.57h0a.11.11,0,0,1-.1-.11h0v-2.28a.11.11,0,0,1,.1-.1h0a.11.11,0,0,1,.1.09h0v2.32a.11.11,0,0,1-.1.07Zm0-4.58a.1.1,0,0,1-.09-.1c0-.76,0-1.52,0-2.28a.1.1,0,0,1,.09-.1h0a.09.09,0,0,1,.1.08h0l.05,2.29a.13.13,0,0,1-.1.1Zm-.1-4.58a.11.11,0,0,1-.11-.09c0-.78-.05-1.55-.09-2.33a.11.11,0,0,1,.09-.1h0a.09.09,0,0,1,.1.1c0,.77.07,1.55.1,2.28a.09.09,0,0,1-.09.1Zm-.23-4.57a.09.09,0,0,1-.09-.1c-.05-.77-.1-1.55-.16-2.28a.12.12,0,0,1,.1-.11.13.13,0,0,1,.1.1c.05.77.11,1.55.15,2.32a.11.11,0,0,1-.09.11Zm-.34-4.57c-.05,0-.09,0-.09-.09-.07-.78-.14-1.56-.23-2.28a.13.13,0,0,1,.09-.11.09.09,0,0,1,.1.08h0c.07.77.15,1.51.22,2.28a.12.12,0,0,1-.09.11Zm-.48-4.56a.08.08,0,0,1-.09-.08h0c-.11-.78-.21-1.55-.31-2.27a.09.09,0,0,1,.07-.11h0a.09.09,0,0,1,.11.07h0c.11.78.21,1.5.31,2.27a.09.09,0,0,1-.07.11h0Zm-.67-4.53a.1.1,0,0,1-.1-.08c-.13-.78-.27-1.55-.41-2.25a.09.09,0,0,1,.09-.09.1.1,0,0,1,.1.09h0c.14.72.28,1.48.41,2.26a.09.09,0,0,1-.07.11Zm-.91-4.49a.1.1,0,0,1-.09-.07q-.27-1.17-.57-2.22a.11.11,0,0,1,.07-.12h0a.1.1,0,0,1,.12.06c.19.72.39,1.47.57,2.23a.11.11,0,0,1-.07.12Zm-33.58-1.91h-.06a.1.1,0,0,1,0-.14c.33-.39.69-.82,1.08-1.3l.38-.45a.1.1,0,0,1,.14,0,.09.09,0,0,1,0,.13h0l-.38.46c-.39.47-.77.91-1.08,1.3a.11.11,0,0,1-.11,0Zm32.35-2.5a.1.1,0,0,1-.09-.07c-.25-.77-.51-1.47-.78-2.14a.1.1,0,0,1,.06-.12.09.09,0,0,1,.12,0h0c.27.68.54,1.41.78,2.16a.1.1,0,0,1-.07.12Zm-29.41-1h-.06a.09.09,0,0,1,0-.13c.53-.63,1-1.18,1.55-1.72a.1.1,0,0,1,.14,0,.1.1,0,0,1,0,.13s0,0,0,0l-1.55,1.71a.09.09,0,0,1-.11,0ZM184.55,193a.1.1,0,0,1-.09-.06,18.25,18.25,0,0,0-1.13-2,.12.12,0,0,1,0-.14.1.1,0,0,1,.13,0,19.8,19.8,0,0,1,1.14,2,.09.09,0,0,1,0,.13Zm-24.61-.13h-.07a.1.1,0,0,1,0-.14c.56-.55,1.11-1.08,1.67-1.55a.09.09,0,0,1,.13,0,.09.09,0,0,1,0,.13h0c-.54.49-1.1,1-1.66,1.55Zm3.42-3a.09.09,0,0,1-.08,0,.09.09,0,0,1,0-.13h0c.63-.49,1.26-.93,1.88-1.33a.09.09,0,0,1,.13,0,.1.1,0,0,1,0,.13h0c-.61.4-1.24.84-1.86,1.32h0Zm18.61-.61a.08.08,0,0,1-.07,0,9.66,9.66,0,0,0-1.69-1.5.1.1,0,0,1,.14-.14,10.64,10.64,0,0,1,1.72,1.56.1.1,0,0,1,0,.13h0a.07.07,0,0,1-.07-.07h0Zm-14.78-1.85a.1.1,0,0,1-.05-.18,15.21,15.21,0,0,1,2.13-.89.08.08,0,0,1,.11,0h0a.12.12,0,0,1-.06.13,16.07,16.07,0,0,0-2.1.88Zm11.06-.72h0A12.6,12.6,0,0,0,176,186a.1.1,0,0,1-.08-.11.11.11,0,0,1,.12-.07,12.11,12.11,0,0,1,2.2.66.09.09,0,0,1,0,.18h0Zm-6.74-.73a.09.09,0,0,1-.09-.08.1.1,0,0,1,.07-.12,13.29,13.29,0,0,1,2.09-.17h.21a.09.09,0,0,1,.09.1.09.09,0,0,1-.09.09h-.21a11.66,11.66,0,0,0-2.05.18Z"/></g></g></g></svg>