<svg width="359" height="277" viewBox="0 0 359 277" fill="none" xmlns="http://www.w3.org/2000/svg">
<path d="M182.297 234.516C257.49 234.516 318.447 232.849 318.447 230.794C318.447 228.738 257.49 227.071 182.297 227.071C107.104 227.071 46.1475 228.738 46.1475 230.794C46.1475 232.849 107.104 234.516 182.297 234.516Z" fill="#F5F8FF"/>
<path d="M200.902 229.288H108.461C100.963 229.288 95.9149 223.639 97.1862 216.671L134.417 12.6175C135.688 5.64902 142.797 0 150.295 0H242.736C250.234 0 255.282 5.64902 254.011 12.6175L216.78 216.671C215.509 223.639 208.399 229.288 200.902 229.288Z" fill="#1758F5" fill-opacity="0.6"/>
<path d="M189.356 229.288H96.9147C89.4167 229.288 84.369 223.639 85.6403 216.671L122.871 12.6175C124.142 5.64902 131.251 0 138.749 0H231.19C238.688 0 243.736 5.64902 242.465 12.6175L205.234 216.671C203.963 223.639 196.854 229.288 189.356 229.288Z" fill="#D1E8F7"/>
<path d="M189.887 222.465H98.8729C94.9795 222.465 92.3586 219.532 93.0188 215.914L129.973 13.3727C130.634 9.75436 134.325 6.82129 138.218 6.82129H229.233C233.126 6.82129 235.747 9.75436 235.087 13.3727L198.132 215.914C197.472 219.532 193.781 222.465 189.887 222.465Z" fill="white"/>
<path d="M198.502 75.0651H111.477L120.547 28.4985C121.141 25.6592 124.099 23.3575 127.154 23.3575H209.323C212.378 23.3575 214.373 25.6592 213.779 28.4985L205.109 69.9244C204.515 72.7634 201.557 75.0651 198.502 75.0651Z" fill="url(#paint0_linear)"/>
<path d="M191.488 69.0723H61.206C58.1512 69.0723 56.156 66.7706 56.7502 63.9313L65.4198 22.5054C66.014 19.6661 68.9721 17.3644 72.0273 17.3644H202.309C205.364 17.3644 207.359 19.6661 206.765 22.5054L198.095 63.9313C197.501 66.7706 194.543 69.0723 191.488 69.0723Z" fill="#00F5D4"/>
<path d="M183.176 217.185L102.372 217.541C99.3169 217.541 97.322 215.24 97.9162 212.401L106.586 170.975C107.18 168.136 110.138 165.834 113.193 165.834L193.997 165.477C197.052 165.477 199.047 167.779 198.453 170.618L189.783 212.044C189.189 214.883 186.231 217.185 183.176 217.185Z" fill="#00F5D4"/>
<path d="M111.259 204.641C113.558 187.928 130.645 174.38 149.423 174.38C168.201 174.38 181.56 187.928 179.261 204.641" stroke="#FF967C" stroke-width="16.5208" stroke-miterlimit="10" stroke-linecap="round"/>
<path d="M111.259 204.641C113.558 187.928 130.645 174.38 149.423 174.38C158.717 174.38 166.684 177.699 172.081 183.078" stroke="white" stroke-width="16.5208" stroke-miterlimit="10" stroke-linecap="round"/>
<path d="M173.513 159.62H115.656C112.567 159.62 110.48 157.294 110.994 154.424L123.213 86.1179C123.726 83.2479 126.646 80.9216 129.734 80.9216H187.591C190.68 80.9216 192.767 83.2479 192.254 86.1179L180.034 154.424C179.521 157.294 176.601 159.62 173.513 159.62Z" fill="url(#paint1_linear)"/>
<path d="M133.472 117.042H125.583C125.149 117.056 124.733 117.207 124.404 117.469C124.074 117.732 123.851 118.091 123.77 118.487L119.486 142.437C119.444 142.614 119.446 142.798 119.493 142.975C119.54 143.151 119.629 143.315 119.754 143.454C119.879 143.593 120.037 143.705 120.215 143.779C120.393 143.853 120.587 143.888 120.782 143.882H128.67C129.105 143.869 129.52 143.718 129.85 143.456C130.18 143.193 130.403 142.834 130.484 142.437L134.768 118.487C134.81 118.31 134.807 118.126 134.761 117.95C134.714 117.774 134.625 117.61 134.5 117.47C134.375 117.331 134.218 117.22 134.039 117.146C133.861 117.072 133.667 117.036 133.472 117.042Z" fill="white"/>
<path d="M147.864 125.237H139.976C139.542 125.25 139.126 125.401 138.796 125.663C138.466 125.926 138.243 126.285 138.162 126.682L135.344 142.437C135.302 142.614 135.305 142.798 135.351 142.975C135.398 143.151 135.487 143.315 135.612 143.454C135.737 143.593 135.895 143.705 136.073 143.779C136.251 143.853 136.445 143.888 136.64 143.882H144.529C144.963 143.869 145.379 143.718 145.708 143.456C146.038 143.193 146.262 142.834 146.342 142.437L149.161 126.682C149.202 126.505 149.2 126.321 149.153 126.144C149.107 125.968 149.018 125.804 148.893 125.665C148.767 125.526 148.61 125.414 148.432 125.34C148.253 125.266 148.059 125.231 147.864 125.237Z" fill="white"/>
<path d="M166.917 102.181H159.029C158.595 102.195 158.179 102.345 157.849 102.608C157.52 102.871 157.296 103.23 157.215 103.626L150.273 142.438C150.231 142.615 150.233 142.799 150.28 142.975C150.327 143.151 150.416 143.315 150.541 143.454C150.666 143.594 150.823 143.705 151.001 143.779C151.18 143.853 151.374 143.889 151.569 143.883H159.457C159.892 143.869 160.307 143.719 160.637 143.456C160.967 143.193 161.19 142.834 161.271 142.438L168.214 103.626C168.255 103.449 168.253 103.265 168.206 103.089C168.16 102.913 168.071 102.749 167.946 102.61C167.821 102.47 167.663 102.359 167.485 102.285C167.307 102.211 167.113 102.175 166.917 102.181Z" fill="white"/>
<path d="M180.493 112.242H172.604C172.17 112.255 171.754 112.406 171.425 112.669C171.095 112.931 170.871 113.29 170.791 113.687L165.648 142.438C165.606 142.615 165.608 142.799 165.655 142.975C165.702 143.151 165.791 143.315 165.916 143.454C166.041 143.594 166.198 143.705 166.376 143.779C166.555 143.853 166.749 143.889 166.944 143.882H174.832C175.267 143.869 175.682 143.718 176.012 143.456C176.342 143.193 176.565 142.834 176.646 142.438L181.789 113.687C181.831 113.51 181.828 113.326 181.782 113.15C181.735 112.973 181.646 112.809 181.521 112.67C181.396 112.531 181.238 112.419 181.06 112.345C180.882 112.271 180.688 112.236 180.493 112.242Z" fill="white"/>
<path d="M128.986 89.3247H150.344" stroke="white" stroke-width="10" stroke-miterlimit="10" stroke-linecap="round"/>
<path d="M127.781 96.064H138.46" stroke="white" stroke-width="10" stroke-miterlimit="10" stroke-linecap="round"/>
<path opacity="0.6" d="M121.787 148.764H125.918" stroke="white" stroke-width="6" stroke-miterlimit="10" stroke-linecap="round"/>
<path opacity="0.6" d="M137.646 148.764H141.777" stroke="white" stroke-width="6" stroke-miterlimit="10" stroke-linecap="round"/>
<path opacity="0.6" d="M152.574 148.764H156.705" stroke="white" stroke-width="6" stroke-miterlimit="10" stroke-linecap="round"/>
<path opacity="0.6" d="M167.949 148.764H172.08" stroke="white" stroke-width="6" stroke-miterlimit="10" stroke-linecap="round"/>
<path d="M249.406 159.62H191.548C188.46 159.62 186.373 157.294 186.886 154.424L199.106 86.1179C199.619 83.2479 202.538 80.9216 205.627 80.9216H263.484C266.572 80.9216 268.66 83.2479 268.146 86.1179L255.927 154.424C255.414 157.294 252.494 159.62 249.406 159.62Z" fill="url(#paint2_linear)"/>
<path d="M207.866 127.34H199.977C199.543 127.353 199.127 127.504 198.797 127.767C198.468 128.029 198.244 128.388 198.164 128.785L195.378 142.438C195.336 142.615 195.339 142.799 195.386 142.975C195.432 143.151 195.521 143.315 195.646 143.454C195.771 143.594 195.929 143.705 196.107 143.779C196.285 143.853 196.479 143.889 196.675 143.883H204.563C204.997 143.869 205.413 143.719 205.743 143.456C206.072 143.193 206.296 142.834 206.376 142.438L209.162 128.785C209.204 128.608 209.201 128.424 209.155 128.247C209.108 128.071 209.019 127.907 208.894 127.768C208.769 127.629 208.611 127.517 208.433 127.443C208.255 127.369 208.061 127.334 207.866 127.34Z" fill="white"/>
<path d="M226.736 106.198H218.847C218.414 106.211 217.998 106.362 217.668 106.625C217.338 106.887 217.115 107.246 217.034 107.643L211.236 142.437C211.195 142.614 211.198 142.798 211.244 142.974C211.29 143.15 211.379 143.314 211.504 143.454C211.629 143.593 211.787 143.704 211.966 143.778C212.144 143.853 212.338 143.888 212.533 143.882H220.421C220.855 143.868 221.271 143.718 221.601 143.455C221.931 143.192 222.154 142.833 222.235 142.437L228.033 107.643C228.074 107.466 228.071 107.282 228.025 107.106C227.978 106.93 227.889 106.766 227.764 106.626C227.639 106.487 227.482 106.375 227.303 106.301C227.125 106.227 226.931 106.192 226.736 106.198Z" fill="white"/>
<path d="M240.2 116.133H232.311C231.878 116.146 231.462 116.297 231.132 116.559C230.802 116.822 230.579 117.181 230.498 117.578L226.165 142.437C226.124 142.614 226.126 142.798 226.173 142.975C226.219 143.151 226.308 143.315 226.434 143.454C226.559 143.593 226.716 143.705 226.894 143.779C227.073 143.853 227.266 143.888 227.462 143.882H235.35C235.784 143.869 236.2 143.718 236.53 143.456C236.859 143.193 237.083 142.834 237.163 142.437L241.497 117.578C241.538 117.401 241.535 117.217 241.489 117.04C241.442 116.864 241.353 116.7 241.228 116.561C241.103 116.422 240.946 116.31 240.767 116.236C240.589 116.162 240.395 116.127 240.2 116.133Z" fill="white"/>
<path d="M256.384 112.242H248.496C248.062 112.255 247.646 112.406 247.316 112.669C246.986 112.931 246.763 113.29 246.682 113.687L241.539 142.438C241.498 142.615 241.5 142.799 241.547 142.975C241.593 143.151 241.682 143.315 241.807 143.454C241.933 143.594 242.09 143.705 242.268 143.779C242.447 143.853 242.64 143.889 242.836 143.882H250.724C251.158 143.869 251.574 143.718 251.904 143.456C252.233 143.193 252.457 142.834 252.537 142.438L257.681 113.687C257.722 113.51 257.72 113.326 257.673 113.15C257.627 112.973 257.538 112.809 257.413 112.67C257.288 112.531 257.13 112.419 256.952 112.345C256.773 112.271 256.579 112.236 256.384 112.242Z" fill="white"/>
<path d="M204.88 89.3247H226.237" stroke="white" stroke-width="10" stroke-miterlimit="10" stroke-linecap="round"/>
<path d="M203.674 96.064H214.353" stroke="white" stroke-width="10" stroke-miterlimit="10" stroke-linecap="round"/>
<path opacity="0.6" d="M197.681 148.764H201.811" stroke="white" stroke-width="6" stroke-miterlimit="10" stroke-linecap="round"/>
<path opacity="0.6" d="M213.539 148.764H217.67" stroke="white" stroke-width="6" stroke-miterlimit="10" stroke-linecap="round"/>
<path opacity="0.6" d="M228.468 148.764H232.599" stroke="white" stroke-width="6" stroke-miterlimit="10" stroke-linecap="round"/>
<path opacity="0.6" d="M243.842 148.764H247.973" stroke="white" stroke-width="6" stroke-miterlimit="10" stroke-linecap="round"/>
<path d="M3.81952 236.385L20.2486 268.326L18.2112 269.231C17.5234 269.537 16.7335 269.576 16.015 269.34C15.2964 269.105 14.7079 268.613 14.3796 267.974L0.428277 240.852C0.0998938 240.213 0.0576979 239.479 0.311274 238.811C0.565233 238.143 1.09387 237.596 1.78171 237.291L3.81952 236.385Z" fill="#71C8EA"/>
<path d="M21.7066 229.173L10.3682 233.529L16.7291 241.889L26.7808 239.039L21.7066 229.173Z" fill="#FFD8C6"/>
<path d="M14.4638 233.863C14.4638 233.863 18.8905 240.217 19.5584 243.767C20.2263 247.318 22.5131 265.277 21.8977 266.896C21.4554 268.06 19.8488 268.559 18.8295 268.665C18.6058 268.687 18.3803 268.643 18.1842 268.541C17.9882 268.439 17.8309 268.282 17.735 268.093L2.82159 239.1C2.57224 238.616 2.53733 238.061 2.72377 237.553C2.91059 237.046 3.30381 236.627 3.81978 236.386C5.88292 235.422 9.039 233.979 10.3679 233.529C12.4218 232.835 13.7775 232.839 14.4638 233.863Z" fill="#1758F5"/>
<path d="M94.7283 249.064L79.3208 275.496C78.9575 276.119 78.3433 276.582 77.6129 276.784C76.8825 276.986 76.0957 276.91 75.4255 276.572L73.4395 275.572L91.5849 244.444L93.5706 245.444C94.2408 245.781 94.7391 246.352 94.9562 247.031C95.1734 247.71 95.0916 248.441 94.7283 249.064Z" fill="#71C8EA"/>
<path d="M74.1132 236.401L85.2003 241.283L78.3929 249.334L68.5088 246.015L74.1132 236.401Z" fill="#FFD8C6"/>
<path d="M81.0911 241.424C81.0911 241.424 76.3245 247.562 75.4644 251.076C74.6047 254.591 71.3443 272.419 71.8706 274.066C72.2489 275.248 73.8263 275.822 74.8387 275.976C75.0608 276.009 75.2883 275.976 75.4897 275.883C75.6911 275.79 75.8565 275.641 75.9627 275.457L92.4341 247.201C92.7091 246.729 92.7744 246.176 92.6155 245.661C92.4567 245.145 92.0865 244.708 91.5847 244.444C89.5765 243.384 86.5025 241.794 85.2001 241.283C83.1864 240.493 81.8322 240.433 81.0911 241.424Z" fill="#1758F5"/>
<path d="M107.515 198.748C107.515 198.748 111.759 218.336 108.466 222.174L24.5342 242.147L17.377 229.688L66.3893 209.019L76.2051 196.516L107.515 198.748Z" fill="#D1E8F7"/>
<path d="M86.2757 212.725L67.7574 218.481L59.1162 221.848L70.3534 231.244L60.307 233.353L32.9043 212.725H86.2757Z" fill="#5CA4E6"/>
<path d="M22.6357 228.054L23.2054 229.893L36.218 239.332L48.4414 236.56C48.4414 236.56 24.8612 226.132 22.6357 228.054Z" fill="#5CA4E6"/>
<path d="M46.1925 197.605C46.1925 197.605 22.4595 196.409 10.696 197.37C3.12133 197.988 0.390696 216.002 6.43548 219.279L71.3088 250.149L78.9537 237.311L37.1044 210.985L67.0444 207.071L46.1925 197.605Z" fill="#D1E8F7"/>
<path d="M12.6911 220.812C19.6999 220.812 25.3818 215.532 25.3818 209.018C25.3818 202.505 19.6999 197.224 12.6911 197.224C5.68187 197.224 0 202.505 0 209.018C0 215.532 5.68187 220.812 12.6911 220.812Z" fill="#D1E8F7"/>
<path d="M106.357 222.335C113.366 222.335 119.048 217.055 119.048 210.541C119.048 204.027 113.366 198.747 106.357 198.747C99.3479 198.747 93.666 204.027 93.666 210.541C93.666 217.055 99.3479 222.335 106.357 222.335Z" fill="#D1E8F7"/>
<path d="M71.5919 154.887C70.255 148.753 73.3992 148.911 74.4457 147.936C74.4457 147.936 78.371 144.928 81.3621 147.732C84.5282 150.698 102.677 173.74 102.677 173.74L91.3214 183.447L89.1869 181.079L83.6577 174.951L77.7438 168.401L77.0091 167.655L69.0312 159.258C69.0312 159.258 72.3481 158.117 71.5919 154.887Z" fill="#5661AE"/>
<path d="M77.8895 161.047C82.46 159.624 84.9236 155.028 83.393 150.78C81.8623 146.533 76.9166 144.243 72.3461 145.666C67.776 147.089 65.312 151.685 66.843 155.932C68.3737 160.179 73.3194 162.469 77.8895 161.047Z" fill="#5661AE"/>
<path d="M77.1143 167.623C76.8852 166.341 76.4272 163.777 75.9342 161.44L73.3145 150.129C73.3145 150.129 80.3509 159.794 83.5929 166.526C85.9937 171.571 88.7788 176.714 89.2395 181.063L83.7107 174.935L77.7967 168.385L77.1143 167.623Z" fill="#465393"/>
<path d="M114.02 147.799C116.718 143.225 115.421 142.448 116.569 139.846C117.7 137.307 115.692 131.012 117.614 131.87C119.536 132.728 120.131 135.01 120.131 135.01C121.446 132.848 122.657 128.871 125.804 128.416C128.951 127.961 129.23 128.882 131.014 130.242C135.76 133.912 129.708 139.427 128.698 141.527C128.048 142.843 123.273 146.857 122.744 147.734L120.341 150.974L114.02 147.799Z" fill="#FFCCB3"/>
<path d="M123.291 135.293L127.126 128.712L123.291 135.293Z" fill="#E56441"/>
<path d="M123.291 135.293L127.126 128.712" stroke="#FFB18E" stroke-width="0.94666" stroke-linecap="round"/>
<path d="M125.805 136.359L129.985 130.23L125.805 136.359Z" fill="#E56441"/>
<path d="M125.805 136.359L129.985 130.23" stroke="#FFB18E" stroke-width="0.94666" stroke-linecap="round"/>
<path d="M128.79 137.537L131.179 133.825L128.79 137.537Z" fill="#E56441"/>
<path d="M128.79 137.537L131.179 133.825" stroke="#FFB18E" stroke-width="0.94666" stroke-linecap="round"/>
<path d="M122.344 141.086C122.324 138.807 120.853 136.05 120.853 136.05L122.344 141.086Z" fill="#E56441"/>
<path d="M122.344 141.086C122.324 138.807 120.853 136.05 120.853 136.05" stroke="#FFB18E" stroke-width="0.94666" stroke-linecap="round"/>
<path d="M91.2246 173.557L114.316 144.978C114.463 144.811 114.672 144.699 114.902 144.666C115.133 144.633 115.368 144.68 115.563 144.798L121.61 148.514C121.897 148.695 122.101 148.969 122.184 149.282C122.266 149.596 122.22 149.926 122.055 150.21L103.485 182.036L91.2246 173.557Z" fill="#5661AE"/>
<path d="M96.8353 185.627C101.106 185.627 104.568 182.409 104.568 178.44C104.568 174.472 101.106 171.254 96.8353 171.254C92.5648 171.254 89.1025 174.472 89.1025 178.44C89.1025 182.409 92.5648 185.627 96.8353 185.627Z" fill="#5661AE"/>
<path d="M62.5446 141.619C62.5446 141.619 75.5031 144.806 77.7273 145.633C79.952 146.46 80.1001 149.767 80.2485 152.111C80.3966 154.454 79.8986 207.071 79.8986 207.071L51.2204 206.046L29.7734 194.379C29.7734 194.379 30.706 152.629 31.0026 150.699C31.2991 148.77 28.9686 147.109 31.4948 146.137L47.7336 142.15L62.5446 141.619Z" fill="#5661AE"/>
<path d="M40.9652 160.363L41.1961 199.239L28.8672 186.469L34.8322 159.154L40.9652 160.363Z" fill="#465393"/>
<path d="M45.619 142.744C45.619 142.744 43.7845 146.173 45.619 148.538C47.4535 150.903 54.7977 153.201 59.8151 153.133C64.8321 153.066 67.4907 148.62 65.2161 142.396L56.9064 140.226L47.734 142.15L45.619 142.744Z" fill="#465393"/>
<path d="M66.3894 113.195C66.3894 113.195 70.0023 120.441 66.1488 121.937C62.2953 123.434 62.7442 113.547 66.3894 113.195Z" fill="#93523E"/>
<path d="M62.3141 136.38L63.3595 147.334C63.3595 147.334 64.3615 148.802 60.4589 149.573C57.9485 150.069 51.1882 147.594 49.8766 146.851C49.3188 146.576 48.8819 146.129 48.6409 145.587C48.4 145.044 48.3701 144.441 48.5562 143.88C48.9547 142.54 50.6066 131.373 50.6066 131.373L62.3141 136.38Z" fill="#FFD8C6"/>
<path d="M62.5151 138.492L56.2881 135.633L63.2302 145.983L62.5151 138.492Z" fill="#FFC1A5"/>
<path d="M64.3145 115.292C64.3145 115.292 67.9689 123.809 69.2943 129.784C70.6316 135.812 68.4979 137.318 65.6825 138.204C63.4617 138.904 59.9154 139.461 57.5032 138.759C53.1042 137.48 48.8007 133.786 47.7714 133.027C46.1778 131.852 44.6046 126.524 46.9401 123.509C49.276 120.495 58.4788 111.021 64.3145 115.292Z" fill="#FFD8C6"/>
<path d="M59.6098 127.048C60.0958 126.87 60.2531 126.167 59.9612 125.477C59.6693 124.788 59.039 124.373 58.5529 124.551C58.0669 124.729 57.9096 125.431 58.2011 126.121C58.4931 126.81 59.1237 127.225 59.6098 127.048Z" fill="#080B09"/>
<path d="M66.2894 124.56C66.7754 124.382 66.9327 123.679 66.6408 122.99C66.3492 122.3 65.7185 121.886 65.2325 122.063C64.7464 122.241 64.5892 122.944 64.8811 123.633C65.1727 124.322 65.8033 124.737 66.2894 124.56Z" fill="#080B09"/>
<path d="M63.8393 125.737C63.8393 125.737 63.2458 127.406 64.4934 127.243C65.6792 127.05 66.484 127.594 65.4479 128.713" fill="#FFB18E"/>
<path d="M63.8393 125.737C63.8393 125.737 63.2458 127.406 64.4934 127.243C65.6792 127.05 66.484 127.594 65.4479 128.713" stroke="#FFB18E" stroke-width="0.94666" stroke-linecap="round"/>
<path d="M65.5059 130.188L65.5121 130.187L65.5182 130.185C65.5355 130.18 65.5539 130.18 65.5712 130.184C65.5888 130.187 65.6049 130.195 65.618 130.207C65.631 130.219 65.6406 130.233 65.6456 130.25C65.6502 130.266 65.6506 130.283 65.646 130.299L65.6421 130.313L65.6406 130.327C65.5643 131.058 65.3686 131.492 65.1311 131.736C64.9017 131.972 64.614 132.05 64.2876 132.027C63.9526 132.003 63.5847 131.872 63.2284 131.692C62.8762 131.514 62.549 131.296 62.2962 131.108C62.2789 131.093 62.2662 131.075 62.2593 131.053C62.2516 131.032 62.2509 131.008 62.257 130.986C62.2628 130.964 62.2754 130.943 62.2927 130.927C62.3103 130.911 62.3322 130.899 62.3564 130.894L62.3583 130.893C63.3227 130.666 64.7774 130.348 65.5059 130.188Z" fill="#FFB18E" stroke="#FFB18E"/>
<path d="M55.3782 124.13L55.4695 124.249C55.5865 124.433 55.7772 124.567 56.0001 124.621C56.2226 124.676 56.4597 124.646 56.6588 124.538L60.0297 122.608C60.1969 122.521 60.3228 122.379 60.3826 122.209C60.4421 122.04 60.4313 121.856 60.3519 121.694C60.3082 121.592 60.2422 121.5 60.1574 121.424C60.073 121.349 59.9721 121.29 59.8613 121.253C59.7508 121.216 59.633 121.201 59.5156 121.209C59.3982 121.218 59.2843 121.249 59.1811 121.302L55.7189 123.113C55.6234 123.158 55.5386 123.22 55.4692 123.295C55.4001 123.371 55.3479 123.459 55.3165 123.554C55.2846 123.649 55.2735 123.749 55.2842 123.848C55.295 123.946 55.3268 124.042 55.3782 124.13Z" fill="#080B09"/>
<path d="M67.0225 119.179L63.0666 119.52C62.9496 119.531 62.8364 119.566 62.7347 119.621C62.6331 119.676 62.5452 119.75 62.4769 119.839C62.4087 119.928 62.3615 120.029 62.3385 120.137C62.3154 120.244 62.317 120.354 62.3431 120.461C62.3772 120.636 62.4808 120.793 62.6335 120.901C62.7865 121.009 62.9772 121.059 63.1682 121.043L67.1219 120.848C67.3513 120.831 67.5646 120.731 67.7146 120.568C67.8646 120.406 67.9394 120.195 67.9225 119.982L67.9252 119.835C67.9141 119.736 67.8815 119.641 67.8297 119.554C67.7779 119.467 67.7077 119.39 67.6237 119.329C67.5393 119.268 67.4426 119.223 67.3394 119.197C67.2362 119.172 67.1284 119.165 67.0225 119.179Z" fill="#080B09"/>
<path d="M59.7788 116.991C59.7788 116.991 57.8043 120.483 54.222 121.518C50.6397 122.554 52.5974 127.808 52.5974 127.808C52.5974 127.808 50.141 125.537 47.3175 126.816C44.4937 128.094 46.637 133.111 50.5381 133.174L49.477 138.82C49.477 138.82 47.5013 136.533 45.4236 135.31C43.3455 134.086 35.8813 129.337 39.1786 123.082C39.1786 123.082 36.5987 114.299 43.6743 109.745C50.7498 105.192 56.874 106.91 56.874 106.91C56.874 106.91 58.5608 104.423 62.4707 104.931C66.3806 105.439 67.2822 111.991 65.9874 114.361C64.6927 116.731 62.5828 117.738 59.7788 116.991Z" fill="#93523E"/>
<path d="M30.3 151.998C35.276 147.78 36.7453 150.368 38.1835 150.702C38.1835 150.702 42.9773 152.286 41.9254 156.112C40.8136 160.16 28.8668 186.468 28.8668 186.468L14.0723 182.401L15.161 179.483L17.9776 171.926L20.9859 163.846L21.2967 162.877L24.9503 152.202C24.9503 152.202 27.7075 154.26 30.3 151.998Z" fill="#5661AE"/>
<path d="M40.1545 159.298C43.2891 155.895 42.8618 150.775 39.2005 147.862C35.5391 144.949 30.0299 145.346 26.8957 148.749C23.7611 152.151 24.1881 157.271 27.8498 160.184C31.5111 163.097 37.0199 162.7 40.1545 159.298Z" fill="#5661AE"/>
<path d="M27.4029 180.007L54.8697 205.02C55.0297 205.177 55.121 205.385 55.1264 205.601C55.1317 205.817 55.0508 206.028 54.8989 206.192L50.1439 211.277C49.9133 211.518 49.5945 211.671 49.2492 211.706C48.9044 211.741 48.5576 211.655 48.2768 211.466L16.7539 190.194L27.4029 180.007Z" fill="#5661AE"/>
<path d="M21.4583 191.724C25.7292 191.724 29.1914 188.507 29.1914 184.537C29.1914 180.568 25.7292 177.351 21.4583 177.351C17.1878 177.351 13.7256 180.568 13.7256 184.537C13.7256 188.507 17.1878 191.724 21.4583 191.724Z" fill="#5661AE"/>
<path d="M66.144 175.188L51.2375 213.569H21.2656C21.2656 212.397 21.7666 211.273 22.6582 210.444C23.5501 209.615 24.7593 209.15 26.0203 209.15H47.7039L60.5757 175.188H66.144Z" fill="white"/>
<path d="M66.1438 175.188H106.357L90.8048 213.569H51.2373L66.1438 175.188Z" fill="url(#paint3_linear)"/>
<path d="M122.295 50.0224C122.295 50.0224 128.995 48.7108 131.121 51.7391C133.246 54.7673 135.371 60.4563 140.188 59.7187C145.006 58.981 148.689 44.1021 153.506 44.234C158.323 44.3656 156.198 54.1092 161.44 54.2408C166.683 54.3723 165.407 48.8424 169.658 48.8424C173.909 48.8424 172.491 60.6927 178.017 60.8242C183.543 60.9561 182.976 45.5506 191.335 45.8138" stroke="white" stroke-width="5" stroke-miterlimit="10" stroke-linecap="round"/>
<path d="M102.735 47.9764C106.148 40.1868 102.862 31.5826 95.3973 28.7583C87.9323 25.9339 79.1147 29.959 75.7023 37.7486C72.29 45.5381 75.5754 54.1423 83.0403 56.9667C90.5053 59.791 99.3233 55.7659 102.735 47.9764Z" stroke="#FF967C" stroke-width="16.5208" stroke-miterlimit="10" stroke-linecap="round"/>
<path d="M96.1695 55.5138C92.2308 57.9282 87.4044 58.6177 83.0403 56.9667C75.5754 54.1423 72.29 45.5381 75.7023 37.7486C79.1147 29.959 87.9323 25.9339 95.3973 28.7583" stroke="white" stroke-width="16.5208" stroke-miterlimit="10" stroke-linecap="round"/>
<path d="M127.331 27.8547H156.815" stroke="white" stroke-width="10" stroke-miterlimit="10" stroke-linecap="round"/>
<path opacity="0.6" d="M125.934 35.4136H137.929" stroke="white" stroke-width="10" stroke-miterlimit="10" stroke-linecap="round"/>
<path d="M350.549 215.713C350.464 215.722 350.426 215.766 350.472 215.801C350.434 215.844 350.434 215.844 350.445 215.924C350.265 216.467 350.138 217.024 350.065 217.588L357.339 223.021L358.145 222.18C358.145 222.18 355.459 219.094 354.454 218.196C354.021 217.801 353.633 217.44 353.246 217.079C352.908 216.754 352.605 216.385 352.313 216.094C351.907 215.576 350.729 215.775 350.718 215.696C350.672 215.661 350.549 215.713 350.549 215.713Z" fill="#233B62"/>
<path d="M295.548 168.506L302.572 174.832L341.844 210.077L342.561 210.684L342.872 211.132L342.918 211.167L348.481 219L349.102 219.896L349.309 220.195L353.073 225.531L349.973 226.964L349.075 227.375L347.809 227.943L345.811 228.905L345.776 228.948L343.655 229.962L343.551 229.813L338.717 221.227C337.781 219.568 336.466 218.119 334.866 216.979L292.161 186.598L284.044 180.823L295.548 168.506Z" fill="#FFD8C6"/>
<path d="M347.944 211.459C346.061 210.646 343.947 209.919 341.883 210.033C343.126 211.046 343.694 212.849 344.518 214.164C346.21 216.869 350.549 221.898 348.332 226.171C347.085 228.572 343.601 229.847 343.552 229.812C342.969 232.278 340.08 242.315 345.842 236.497C349.06 233.248 352.252 229.777 353.856 226.331C354.516 224.919 353.123 223.51 352.44 222.317C351.566 220.513 350.261 218.123 350.426 216.125L350.461 216.081C350.557 215.943 358.018 222.151 358.145 222.18C358.402 221.794 359 221.014 359 221.014C359 221.014 348.301 211.582 347.944 211.459Z" fill="#4579F7"/>
<path d="M267.587 244.293C267.52 244.244 267.46 244.25 267.467 244.306C267.407 244.313 267.407 244.313 267.354 244.376C266.817 244.648 266.308 244.964 265.831 245.32L266.943 253.931L268.151 253.853C268.151 253.853 268.555 249.902 268.509 248.605C268.497 248.041 268.492 247.532 268.487 247.023C268.49 246.57 268.552 246.11 268.562 245.712C268.663 245.079 267.669 244.454 267.722 244.391C267.714 244.335 267.587 244.293 267.587 244.293Z" fill="#233B62"/>
<path d="M263.794 174.805L264.053 183.89L265.605 234.607L265.66 235.506L265.545 236.029L265.552 236.085L263.635 245.299L263.405 246.343L263.328 246.692L262.004 252.953L258.708 251.962L257.757 251.672L256.425 251.254L254.275 250.645L254.215 250.651L251.938 249.999L251.977 249.825L254.981 240.546C255.559 238.751 255.71 236.861 255.423 235.006L247.759 185.537L246.301 176.132L263.794 174.805Z" fill="#FFD8C6"/>
<path d="M268.924 239.558C268.19 237.754 267.226 235.862 265.665 234.601C265.792 236.134 264.841 237.792 264.44 239.266C263.614 242.3 262.932 248.715 258.132 250.328C255.435 251.235 251.983 249.882 251.976 249.826C249.704 251.209 240.084 256.506 248.582 256.092C253.327 255.86 258.221 255.454 261.961 254.034C263.494 253.452 263.56 251.54 263.969 250.244C264.702 248.386 265.566 245.828 267.187 244.507L267.247 244.5C267.419 244.463 268.081 253.75 268.15 253.853C268.623 253.744 269.637 253.574 269.637 253.574C269.637 253.574 269.087 239.88 268.924 239.558Z" fill="#4579F7"/>
<path d="M253.213 106.642L239.33 161.125L239.305 164.993L250.594 229.506L268.568 227.698L263.354 166.084L277.654 133.937L274.763 107.574L253.213 106.642Z" fill="#1F2D49"/>
<path d="M251.269 174.358C257.974 174.358 263.409 169.308 263.409 163.077C263.409 156.846 257.974 151.795 251.269 151.795C244.565 151.795 239.13 156.846 239.13 163.077C239.13 169.308 244.565 174.358 251.269 174.358Z" fill="#1F2D49"/>
<path d="M267.911 155.842L264.487 128.923L263.354 166.084L267.911 155.842Z" fill="#0D1B33"/>
<path d="M290.688 106.472C290.688 106.472 297.16 116.578 297.244 125.041C297.374 137.743 292.445 160.518 292.445 160.518L335.484 200.946L325.237 215.224C325.237 215.224 288.513 186.905 272.974 173.454L269.493 166.905L264.486 128.923L272.14 106.472H290.688Z" fill="#1F2D49"/>
<path d="M253.213 106.642L290.91 107.002L294.574 114.048L252.576 109.142L253.213 106.642Z" fill="#0D1B33"/>
<path d="M281.525 176.728C288.229 176.728 293.665 171.677 293.665 165.446C293.665 159.216 288.229 154.164 281.525 154.164C274.821 154.164 269.386 159.216 269.386 165.446C269.386 171.677 274.821 176.728 281.525 176.728Z" fill="#1F2D49"/>
<path d="M248.812 31.7724C248.812 31.7724 249.318 37.0093 247.831 42.0433C246.344 47.0773 235.086 57.7372 245.07 66.4234C255.054 75.1093 267.268 51.8151 267.268 51.8151L263.444 41.0561L250.222 28.2721L248.812 31.7724Z" fill="#1F2D49"/>
<path d="M279.273 32.995C279.273 32.995 282.269 36.5324 289.096 39.4237C295.794 42.2612 303.006 46.9252 301.522 57.0917C300.033 67.2581 280.231 59.362 274.414 53.5382C268.596 47.7149 269.397 37.3174 269.397 37.3174L279.273 32.995Z" fill="#1F2D49"/>
<path d="M263.958 52.045C263.958 52.045 256.359 54.8394 255.199 55.7018C254.039 56.5646 252.937 63.6047 250.964 66.9471C248.992 70.2898 246.106 76.4593 250.321 82.1265C254.535 87.7934 254.087 92.2933 254.087 92.2933L253.19 106.509L289.511 107.131C289.833 107.141 290.152 107.087 290.447 106.973C290.742 106.86 291.007 106.689 291.23 106.473C291.448 106.257 291.613 105.999 291.721 105.718C291.824 105.437 291.863 105.139 291.836 104.843C291.433 100.698 289.588 94.8774 289.442 88.2775C289.246 79.3332 289.1 49.447 289.1 49.447L273.277 48.9854C270.09 49.4962 263.958 52.045 263.958 52.045Z" fill="#FEBB94"/>
<path d="M282.871 61.6638C282.871 61.6638 277.578 66.1492 277.266 69.4769C276.955 72.8046 276.235 82.083 269.432 83.0085C261.094 84.143 258.912 85.2475 262.777 86.1156C266.642 86.9837 275.415 85.5773 275.415 89.2986C275.415 91.9472 278.823 93.9283 280.536 92.4816C282.248 91.0348 295.89 69.0427 282.871 61.6638Z" fill="#FF967C"/>
<path d="M219.032 65.4236L216.162 62.01C215.561 61.211 214.763 60.5579 213.833 60.1062C212.421 59.4491 210.256 58.2234 209.504 56.9984C208.257 55.0511 203.344 49.7914 207.606 45.7032C209.184 44.1944 208.789 44.5513 211.943 44.5966C215.097 44.6415 215.581 47.6829 217.157 49.6737C217.157 49.6737 217.511 47.3774 219.253 46.3282C220.995 45.2789 219.839 51.6874 221.18 54.116C222.52 56.5446 221.437 57.4626 224.612 61.7294L219.032 65.4236Z" fill="#FFD8C6"/>
<path d="M211.463 44.947L214.026 50.3507L211.463 44.947Z" fill="#E56441"/>
<path d="M211.463 44.947L214.026 50.3507" stroke="#FFB18E" stroke-width="0.94666" stroke-linecap="round"/>
<path d="M208.121 45.9075L211.672 51.6617L208.121 45.9075Z" fill="#E56441"/>
<path d="M208.121 45.9075L211.672 51.6617" stroke="#FFB18E" stroke-width="0.94666" stroke-linecap="round"/>
<path d="M206.023 49.6908L208.823 53.1259L206.023 49.6908Z" fill="#E56441"/>
<path d="M206.023 49.6908L208.823 53.1259" stroke="#FFB18E" stroke-width="0.94666" stroke-linecap="round"/>
<path d="M216.498 50.8986C216.498 50.8986 215.413 53.7857 215.601 56.0606L216.498 50.8986Z" fill="#E56441"/>
<path d="M216.498 50.8986C216.498 50.8986 215.413 53.7857 215.601 56.0606" stroke="#FFB18E" stroke-width="0.94666" stroke-linecap="round"/>
<path d="M257.044 54.7716C254.098 55.7207 249.991 57.6455 248.88 59.7932L239.06 80.5824L222.707 57.4893L216.514 63.5512L231.786 92.9072C234.577 99.3627 241.666 101.788 246.802 94.8307L255.007 82.8542L257.044 54.7716Z" fill="#FEBB94"/>
<path d="M252.857 72.668C252.857 72.668 251.971 71.2487 251.971 78.6575L246.802 94.8309L255.006 82.8544C261.589 74.6303 256.389 72.4338 252.857 72.668Z" fill="#FF967C"/>
<path d="M270.86 62.8595L243.734 72.9005C242.891 73.2124 242.481 74.1005 242.816 74.8834L256.393 106.559C256.728 107.343 257.684 107.725 258.526 107.413L285.652 97.3715C286.495 97.0595 286.906 96.1718 286.57 95.3885L272.993 63.7127C272.658 62.9294 271.702 62.5476 270.86 62.8595Z" fill="#1758F5"/>
<path d="M247.873 75.8799L259.058 71.7394" stroke="white" stroke-width="4" stroke-miterlimit="10" stroke-linecap="round"/>
<path d="M249.562 79.6019L254.661 77.7145" stroke="white" stroke-width="4" stroke-miterlimit="10" stroke-linecap="round"/>
<path d="M262.996 44.5983L263.423 55.7106C263.423 55.7106 262.838 58.1439 265.526 57.874C268.213 57.6041 271.831 55.6376 273.864 53.4778C275.898 51.318 275.759 51.1447 274.887 49.7272C274.016 48.3101 269.924 37.5072 269.924 37.5072L262.996 44.5983Z" fill="#FFD8C6"/>
<path d="M263.057 45.5308L268.012 42.5984C268.012 42.5984 265.816 51.5531 263.423 55.7111L263.057 45.5308Z" fill="#FFC1A5"/>
<path d="M249.697 27.9692C249.697 27.9692 249.618 39.028 254.752 44.5936C258.101 48.2229 261.623 47.7416 267.498 41.7664C272.885 36.2878 273.64 33.4324 273.64 33.4324L269.921 22.5829C269.921 22.5829 250.302 17.9047 249.697 27.9692Z" fill="#FFD8C6"/>
<path d="M254.806 25.4039C254.806 25.4039 256.957 30.2572 260.951 31.6134C264.944 32.9696 265.989 35.4916 265.989 35.4916C265.989 35.4916 266.755 31.3421 269.894 31.4929C273.033 31.6437 272.395 36.7936 270.447 38.5034C270.447 38.5034 272.79 42.5431 274.778 45.5308L283.481 37.5034C283.481 37.5034 278.997 32.6858 278.011 28.8094C277.025 24.9329 273.834 14.5554 261.669 15.2428C247.386 16.0496 248.206 26.836 248.813 32.827C248.813 32.827 253.292 31.2308 254.806 25.4039Z" fill="#1F2D49"/>
<path d="M256.353 41.1735L259.824 39.5906C259.827 39.6088 259.83 39.6284 259.833 39.6487C259.857 39.818 259.868 40.0508 259.818 40.3065C259.72 40.8066 259.389 41.4138 258.402 41.8081C257.769 41.9988 257.229 41.8106 256.832 41.5603C256.634 41.4345 256.475 41.2954 256.367 41.1874C256.362 41.1828 256.357 41.1781 256.353 41.1735Z" fill="#FFB18E" stroke="#FFB18E"/>
<path d="M252.57 36.6828C253.009 36.5819 253.236 36.0132 253.076 35.4121C252.916 34.8111 252.431 34.4053 251.992 34.5062C251.553 34.6068 251.327 35.1758 251.487 35.7769C251.647 36.3776 252.132 36.7833 252.57 36.6828Z" fill="#080B09"/>
<path d="M259.076 35.2812C259.515 35.1806 259.742 34.6116 259.582 34.0105C259.422 33.4098 258.937 33.0041 258.498 33.1046C258.059 33.2055 257.833 33.7742 257.993 34.3753C258.152 34.9763 258.637 35.3821 259.076 35.2812Z" fill="#080B09"/>
<path d="M250.045 33.4422L253.356 32.736C253.412 32.7196 253.458 32.685 253.489 32.639C253.519 32.5927 253.529 32.5381 253.519 32.485C253.483 32.3948 253.427 32.3121 253.354 32.2422C253.282 32.1727 253.196 32.1171 253.1 32.0793C253.004 32.0415 252.901 32.0222 252.797 32.0222C252.693 32.0226 252.59 32.0425 252.494 32.0807L249.898 33.1028C249.682 33.1524 249.775 33.5043 250.045 33.4422Z" fill="#080B09"/>
<path d="M261.163 30.6875L256.851 31.9435C256.822 31.8184 256.822 31.689 256.85 31.5638C256.879 31.4387 256.935 31.3203 257.015 31.2162C257.096 31.1125 257.198 31.0255 257.317 30.961C257.436 30.8964 257.568 30.8558 257.705 30.8415L261.151 30.4241C261.259 30.3995 261.326 30.6505 261.163 30.6875Z" fill="#080B09"/>
<path d="M254.892 34.6732L254.425 37.9179L255.658 38.4712" fill="#E56441"/>
<path d="M254.892 34.6732L254.425 37.9179L255.658 38.4712" stroke="#FFB18E" stroke-width="0.94666" stroke-linecap="round"/>
<path d="M258.175 91.564L247.48 94.4157L246.173 100.54L248.606 107.319C248.606 107.319 250.317 106.249 249.96 103.754C249.603 101.259 258.641 101.33 260.297 98.1938" fill="#FFD8C6"/>
<path d="M282.605 57.8076C282.605 57.8076 282.534 49.3888 289.79 49.3877C294.658 49.387 296.987 51.5079 297.609 58.1263C298.042 62.7535 298.357 88.1422 298.357 88.1422C298.357 88.1422 299.58 99.7294 289.004 99.9458L258.466 99.0959L257.776 91.1666L284.397 88.7005L282.605 57.8076Z" fill="#FEBB94"/>
<path d="M260.521 56.7545C260.521 56.7545 263.275 56.0261 262.829 53.5123C262.394 51.0384 262.377 48.8907 263.25 49.1898C263.25 49.1898 264.021 50.4181 268.813 49.0529C273.575 47.7388 273.276 46.2208 273.276 46.2208C273.276 46.2208 273.95 45.666 274.453 47.09C274.956 48.5139 276.231 52.457 278.928 52.1732L279.657 59.5228L265.316 63.9098C265.284 63.9608 258.656 57.9937 260.521 56.7545Z" fill="#FEBB94"/>
<path d="M143.552 203.42H152.575" stroke="white" stroke-width="5" stroke-miterlimit="10" stroke-linecap="round"/>
<path opacity="0.5" d="M145.389 207.058H149.9" stroke="white" stroke-width="5" stroke-miterlimit="10" stroke-linecap="round"/>
<path d="M137.542 196.154L144.465 191.667L149.342 194.685L155.833 190.317" stroke="white" stroke-width="6.50414" stroke-linecap="round" stroke-linejoin="round"/>
<path d="M150.843 188.413H157.748V194.762" stroke="white" stroke-width="6.50414" stroke-linecap="round" stroke-linejoin="round"/>
<path d="M239.043 80.5756L243.635 86.9163L241.186 76.0835L239.043 80.5756Z" fill="#FF967C"/>
<defs>
<linearGradient id="paint0_linear" x1="160.131" y1="23.2345" x2="166.184" y2="133.823" gradientUnits="userSpaceOnUse">
<stop stop-color="white"/>
<stop offset="1" stop-color="#94B9FF"/>
</linearGradient>
<linearGradient id="paint1_linear" x1="142.198" y1="55.8813" x2="167.591" y2="247.408" gradientUnits="userSpaceOnUse">
<stop stop-color="white"/>
<stop offset="1" stop-color="#1758F5"/>
</linearGradient>
<linearGradient id="paint2_linear" x1="218.091" y1="55.8813" x2="243.483" y2="247.408" gradientUnits="userSpaceOnUse">
<stop stop-color="white"/>
<stop offset="1" stop-color="#1758F5"/>
</linearGradient>
<linearGradient id="paint3_linear" x1="77.4251" y1="175.097" x2="83.6052" y2="256.962" gradientUnits="userSpaceOnUse">
<stop stop-color="white"/>
<stop offset="1" stop-color="#94B9FF"/>
</linearGradient>
</defs>
</svg>
